<svg width="40" height="40" viewBox="0 0 40 40" fill="none" xmlns="http://www.w3.org/2000/svg">
<path d="M20.2656 0.590851C9.51344 0.590851 0.765625 9.33866 0.765625 20.0909C0.765625 30.843 9.51344 39.5909 20.2656 39.5909C31.0178 39.5909 39.7656 30.843 39.7656 20.0909C39.7656 9.33866 31.0178 0.590851 20.2656 0.590851ZM20.4531 9.59085C21.7881 9.59085 23.0932 9.98673 24.2032 10.7284C25.3133 11.4701 26.1784 12.5243 26.6893 13.7577C27.2002 14.9911 27.3339 16.3483 27.0734 17.6577C26.813 18.9671 26.1701 20.1698 25.2261 21.1138C24.2821 22.0578 23.0794 22.7007 21.77 22.9612C20.4606 23.2216 19.1034 23.0879 17.87 22.577C16.6366 22.0661 15.5824 21.201 14.8407 20.091C14.099 18.9809 13.7031 17.6759 13.7031 16.3409C13.7031 14.5506 14.4143 12.8338 15.6802 11.5679C16.946 10.302 18.6629 9.59085 20.4531 9.59085ZM20.2656 36.5909C17.9898 36.5918 15.7385 36.1207 13.654 35.2074C11.5695 34.2941 9.69706 32.9583 8.155 31.2846C8.98375 26.9927 16.4275 26.0909 20.2656 26.0909C24.1038 26.0909 31.5475 26.9927 32.3762 31.2837C30.8344 32.9577 28.962 34.2937 26.8775 35.2072C24.7929 36.1207 22.5415 36.5918 20.2656 36.5909Z" fill="#FFAF19"/>
</svg>
