<svg width="24" height="25" viewBox="0 0 24 25" fill="none" xmlns="http://www.w3.org/2000/svg">
<path d="M17 3.9218H21C21.2652 3.9218 21.5196 4.02716 21.7071 4.21469C21.8946 4.40223 22 4.65658 22 4.9218V20.9218C22 21.187 21.8946 21.4414 21.7071 21.6289C21.5196 21.8164 21.2652 21.9218 21 21.9218H3C2.73478 21.9218 2.48043 21.8164 2.29289 21.6289C2.10536 21.4414 2 21.187 2 20.9218V4.9218C2 4.65658 2.10536 4.40223 2.29289 4.21469C2.48043 4.02716 2.73478 3.9218 3 3.9218H7V1.9218H9V3.9218H15V1.9218H17V3.9218ZM15 5.9218H9V7.9218H7V5.9218H4V9.9218H20V5.9218H17V7.9218H15V5.9218ZM20 11.9218H4V19.9218H20V11.9218ZM6 14.9218H8V16.9218H6V14.9218ZM10 14.9218H18V16.9218H10V14.9218Z" fill="#373636"/>
</svg>
