<svg width="25" height="25" viewBox="0 0 25 25" fill="none" xmlns="http://www.w3.org/2000/svg">
<g clip-path="url(#clip0_83_5238)">
<path fill-rule="evenodd" clip-rule="evenodd" d="M2.40918 12.9218C2.40918 10.3359 3.43641 7.85599 5.26489 6.02751C7.09337 4.19903 9.57332 3.1718 12.1592 3.1718C14.745 3.1718 17.225 4.19903 19.0535 6.02751C20.882 7.85599 21.9092 10.3359 21.9092 12.9218C21.9092 15.5077 20.882 17.9876 19.0535 19.8161C17.225 21.6446 14.745 22.6718 12.1592 22.6718C9.57332 22.6718 7.09337 21.6446 5.26489 19.8161C3.43641 17.9876 2.40918 15.5077 2.40918 12.9218ZM12.1592 0.921799C8.97658 0.921799 5.92434 2.18608 3.6739 4.43652C1.42346 6.68695 0.15918 9.7392 0.15918 12.9218C0.15918 16.1044 1.42346 19.1566 3.6739 21.4071C5.92434 23.6575 8.97658 24.9218 12.1592 24.9218C15.3418 24.9218 18.394 23.6575 20.6445 21.4071C22.8949 19.1566 24.1592 16.1044 24.1592 12.9218C24.1592 9.7392 22.8949 6.68695 20.6445 4.43652C18.394 2.18608 15.3418 0.921799 12.1592 0.921799ZM12.9092 8.0468C12.9092 7.74843 12.7907 7.46228 12.5797 7.2513C12.3687 7.04033 12.0825 6.9218 11.7842 6.9218C11.4858 6.9218 11.1997 7.04033 10.9887 7.2513C10.7777 7.46228 10.6592 7.74843 10.6592 8.0468V13.2968C10.6592 13.5215 10.7266 13.741 10.8525 13.927C10.9784 14.1131 11.1571 14.2572 11.3657 14.3408L15.1157 15.8408C15.3904 15.9411 15.6933 15.9305 15.9603 15.8113C16.2274 15.6921 16.4375 15.4735 16.5461 15.202C16.6547 14.9305 16.6534 14.6274 16.5423 14.3568C16.4313 14.0863 16.2193 13.8697 15.9512 13.7528L12.9092 12.5348V8.0468Z" fill="#373636"/>
</g>
<defs>
<clipPath id="clip0_83_5238">
<rect width="24" height="24" fill="white" transform="translate(0.65918 0.97728)"/>
</clipPath>
</defs>
</svg>
