<svg width="400" height="320" viewBox="0 0 200 80" fill="none" xmlns="http://www.w3.org/2000/svg">
<g clip-path="url(#clip0_412_2979)">
<path d="M76.5027 79.4023H10.9933C9.0345 79.4178 7.1073 78.9038 5.41163 77.9136C3.71597 76.9234 2.31363 75.4931 1.35005 73.7711C0.230603 71.7114 -0.19752 69.3409 0.129914 67.0148C0.457348 64.6888 1.52268 62.5326 3.16617 60.8695L40.4693 23.2114H1.02859C0.815466 23.2114 0.611078 23.1259 0.460374 22.9738C0.30967 22.8216 0.224994 22.6152 0.224994 22.4V2.31729C0.224994 2.10209 0.30967 1.89571 0.460374 1.74354C0.611078 1.59137 0.815466 1.50587 1.02859 1.50587H66.1202C68.0782 1.48956 70.0048 2.00237 71.7004 2.99111C73.396 3.97984 74.7988 5.40852 75.7634 7.12904C76.8819 9.18952 77.3087 11.5606 76.9798 13.8867C76.6509 16.2127 75.584 18.3685 73.9392 20.0306L36.6442 57.6887H76.4465C76.6596 57.6887 76.864 57.7742 77.0147 57.9264C77.1654 58.0785 77.2501 58.2849 77.2501 58.5001V78.5747C77.2547 78.7832 77.1796 78.9855 77.0405 79.1396C76.9013 79.2937 76.7088 79.3878 76.5027 79.4023Z" fill="#F9AC1E"/>
<path d="M98.7866 33.0945H82.2244C81.7761 33.0945 81.4127 33.4615 81.4127 33.9141V78.7451C81.4127 79.1977 81.7761 79.5647 82.2244 79.5647H98.7866C99.2348 79.5647 99.5982 79.1977 99.5982 78.7451V33.9141C99.5982 33.4615 99.2348 33.0945 98.7866 33.0945Z" fill="#F9AC1E"/>
<path d="M90.5095 3.94824H90.5014C85.4819 3.94824 81.4127 8.057 81.4127 13.1254V13.6853C81.4127 18.7537 85.4819 22.8625 90.5014 22.8625H90.5095C95.529 22.8625 99.5982 18.7537 99.5982 13.6853V13.1254C99.5982 8.057 95.529 3.94824 90.5095 3.94824Z" fill="#F9AC1E"/>
<path d="M136.049 61.3157H104.275V42.9532H136.033C136.247 42.9532 136.451 43.0387 136.602 43.1909C136.752 43.3431 136.837 43.5495 136.837 43.7647V60.4881C136.839 60.5946 136.82 60.7006 136.782 60.7998C136.744 60.8991 136.686 60.9898 136.613 61.0666C136.54 61.1435 136.453 61.205 136.356 61.2478C136.259 61.2905 136.155 61.3136 136.049 61.3157Z" fill="#F9AC1E"/>
<path d="M121.038 79.5565H104.468C104.255 79.5565 104.051 79.471 103.9 79.3188C103.749 79.1667 103.664 78.9603 103.664 78.7451V34.4252H121.85V78.737C121.851 78.8449 121.831 78.9519 121.79 79.0519C121.75 79.1518 121.69 79.2426 121.615 79.3189C121.539 79.3952 121.449 79.4555 121.35 79.4963C121.251 79.5371 121.145 79.5576 121.038 79.5565Z" fill="#F9AC1E"/>
<path d="M173.602 79.4024H147.404C147.191 79.4024 146.987 79.3169 146.836 79.1647C146.685 79.0126 146.601 78.8062 146.601 78.591V65.3486C146.601 65.1334 146.685 64.927 146.836 64.7748C146.987 64.6226 147.191 64.5371 147.404 64.5371H173.602C178.126 64.5371 181.806 57.3317 181.806 52.7634V7.02358C181.806 6.80838 181.891 6.60198 182.042 6.44981C182.193 6.29763 182.397 6.21216 182.61 6.21216H199.18C199.393 6.21216 199.598 6.29763 199.749 6.44981C199.899 6.60198 199.984 6.80838 199.984 7.02358V52.7553C199.984 59.8211 197.205 66.5977 192.257 71.5948C187.31 76.5918 180.599 79.4002 173.602 79.4024Z" fill="#F9AC1E"/>
<path d="M199.992 20.2497V23.609C199.98 30.5743 197.491 37.3037 192.979 42.5725C188.467 47.8414 182.232 51.2995 175.408 52.3177C168.584 53.3359 161.625 51.8465 155.796 48.1204C149.968 44.3944 145.658 38.6793 143.652 32.0153C143.427 31.2688 143.234 30.5142 143.065 29.7434C142.896 28.9725 142.8 28.372 142.703 27.6742C142.539 26.4856 142.448 25.2878 142.43 24.0877V23.609C142.44 21.7842 142.988 20.0037 144.005 18.4952C145.022 16.9866 146.462 15.8185 148.139 15.14C149.817 14.4615 151.657 14.3035 153.424 14.6861C155.191 15.0687 156.805 15.9746 158.06 17.288C159.233 19.5611 160.093 21.9853 160.616 24.4935C160.67 25.1799 160.791 25.8594 160.977 26.522C161.675 29.0095 163.239 31.1585 165.383 32.573C167.526 33.9876 170.103 34.5724 172.639 34.2196C175.176 33.8669 177.5 32.6004 179.185 30.6535C180.87 28.7066 181.801 26.2105 181.806 23.6252V20.266L199.992 20.2497Z" fill="#F9AC1E"/>
<path d="M161.258 30.5791V32.0153H143.652C143.427 31.2688 143.234 30.5142 143.065 29.7434C143.019 29.0424 142.898 28.3486 142.703 27.6742C142.005 25.1861 140.44 23.0366 138.296 21.6221C136.152 20.2076 133.574 19.6234 131.037 19.9772C128.5 20.331 126.175 21.599 124.491 23.5474C122.808 25.4957 121.878 27.9931 121.874 30.5791V34.7092H103.664V30.5791C103.664 14.5454 116.586 0.556519 132.465 0.556519C143.595 0.556519 153.271 7.91612 158.06 17.2718C159.233 19.5449 160.093 21.9691 160.616 24.4772C160.768 25.1426 160.889 25.8161 160.977 26.5058C161.165 27.8553 161.259 29.2164 161.258 30.5791Z" fill="#F9AC1E"/>
</g>
<defs>
<clipPath id="clip0_412_2979">
<rect width="200" height="79" fill="white" transform="translate(0 0.556519)"/>
</clipPath>
</defs>
</svg>
