<svg width="97" height="100" viewBox="0 0 97 100" fill="none" xmlns="http://www.w3.org/2000/svg">
<path fill-rule="evenodd" clip-rule="evenodd" d="M84.8342 16.0268C75.8701 5.34228 63.8273 0 48.7059 0C35.305 0 23.9866 4.34626 14.7508 13.0388C5.15276 22.1841 0.35376 34.8607 0.35376 51.0686C0.35376 65.1939 4.24729 76.8745 12.0343 86.1103C15.9413 90.7205 20.4382 94.3361 25.5251 96.957L33.4753 74.7564C33.2981 74.5614 33.1232 74.362 32.9507 74.1581C28.4234 68.7253 26.1597 60.9835 26.1597 50.9328C26.1597 42.3308 27.9254 35.4039 31.4567 30.1522C35.5313 23.995 41.2358 20.9164 48.5701 20.9164C54.9084 20.9164 60.0243 23.2253 63.9179 27.8432C68.4452 33.095 70.7089 40.6557 70.7089 50.5253C70.7089 60.2138 68.7621 67.7745 64.8686 73.2074C64.6152 73.5551 64.3554 73.8915 64.0893 74.2166L72.084 96.5413C75.445 94.6972 78.5632 92.3974 81.4387 89.6417C91.3989 80.1342 96.379 67.2765 96.379 51.0686C96.379 37.0338 92.5308 25.3532 84.8342 16.0268Z" fill="#FFAF19"/>
<path d="M47.5598 28.886L47.4274 31.9332H50.8016L50.6693 28.886H47.5598ZM47.3117 37.9623L47.0966 42.8379H51.1324L50.9174 37.9623H47.3117ZM46.9974 48.867L46.6666 56.1804H51.5625L51.2317 48.867H46.9974ZM46.5343 65.6485L46.1373 74.7902H52.0918L51.6948 65.6485H46.5343ZM45.9885 82.0382L45.5088 86.5873H52.7203L52.2406 82.0382H45.9885Z" fill="#333333"/>
<path d="M50.6943 45.9329C50.5567 45.6655 50.3449 45.4405 50.0826 45.2833C49.8203 45.126 49.518 45.0427 49.2096 45.0427C48.9011 45.0427 48.5988 45.126 48.3365 45.2833C48.0742 45.4405 47.8624 45.6655 47.7248 45.9329L39.5712 61.7305C39.4099 62.0285 39.3491 62.368 39.3976 62.7012C39.446 63.0344 39.6012 63.3445 39.8413 63.5877C40.0813 63.8309 40.3941 63.995 40.7356 64.0568C41.077 64.1186 41.4299 64.075 41.7444 63.9322L49.2096 60.8145L56.6747 63.9322C56.987 64.0623 57.333 64.0964 57.6659 64.0298C57.9988 63.9632 58.3025 63.7991 58.536 63.5598C58.7694 63.3204 58.9214 63.0174 58.9713 62.6917C59.0211 62.3659 58.9665 62.0332 58.8147 61.7385L50.6943 45.9329Z" fill="#FFAF19"/>
<path d="M50.6943 45.9329C50.5567 45.6655 50.3449 45.4405 50.0826 45.2833C49.8203 45.126 49.518 45.0427 49.2096 45.0427C48.9011 45.0427 48.5988 45.126 48.3365 45.2833C48.0742 45.4405 47.8624 45.6655 47.7248 45.9329L39.5712 61.7305C39.4099 62.0285 39.3491 62.368 39.3976 62.7012C39.446 63.0344 39.6012 63.3445 39.8413 63.5877C40.0813 63.8309 40.3941 63.995 40.7356 64.0568C41.077 64.1186 41.4299 64.075 41.7444 63.9322L49.2096 60.8145L56.6747 63.9322C56.987 64.0623 57.333 64.0964 57.6659 64.0298C57.9988 63.9632 58.3025 63.7991 58.536 63.5598C58.7694 63.3204 58.9214 63.0174 58.9713 62.6917C59.0211 62.3659 58.9665 62.0332 58.8147 61.7385L50.6943 45.9329ZM49.8648 57.5923C49.6578 57.5061 49.4349 57.4616 49.2096 57.4616C48.9843 57.4616 48.7613 57.5061 48.5543 57.5923L44.5646 59.2476L49.2096 50.2399L53.8546 59.2476L49.8648 57.5923Z" fill="#333333"/>
<path d="M48.2666 32.598H48.573L24.3695 100H10.5828L48.2666 32.598Z" fill="#333333"/>
<path d="M49.4917 32.598H49.1853L73.3888 100H87.1755L49.4917 32.598Z" fill="#333333"/>
</svg>
