<svg width="31" height="21" viewBox="0 0 31 21" fill="none" xmlns="http://www.w3.org/2000/svg">
<path d="M22.9618 1.79607C22.9618 1.42164 22.8056 1.06254 22.5276 0.797769C22.2497 0.533003 21.8726 0.384262 21.4795 0.384262H2.20598C1.81284 0.384262 1.4358 0.533003 1.1578 0.797769C0.879808 1.06254 0.723633 1.42164 0.723633 1.79607C0.723633 2.17051 0.879808 2.52961 1.1578 2.79437C1.4358 3.05914 1.81284 3.20788 2.20598 3.20788H21.4795C21.8726 3.20788 22.2497 3.05914 22.5276 2.79437C22.8056 2.52961 22.9618 2.17051 22.9618 1.79607ZM2.20598 8.85609H28.8922C29.2853 8.85609 29.6624 9.00483 29.9404 9.26959C30.2184 9.53436 30.3745 9.89346 30.3745 10.2679C30.3745 10.6423 30.2184 11.0014 29.9404 11.2662C29.6624 11.531 29.2853 11.6797 28.8922 11.6797H2.20598C1.81284 11.6797 1.4358 11.531 1.1578 11.2662C0.879808 11.0014 0.723633 10.6423 0.723633 10.2679C0.723633 9.89346 0.879808 9.53436 1.1578 9.26959C1.4358 9.00483 1.81284 8.85609 2.20598 8.85609ZM2.20598 17.3279H15.5491C15.9422 17.3279 16.3193 17.4767 16.5973 17.7414C16.8753 18.0062 17.0314 18.3653 17.0314 18.7397C17.0314 19.1142 16.8753 19.4733 16.5973 19.738C16.3193 20.0028 15.9422 20.1515 15.5491 20.1515H2.20598C1.81284 20.1515 1.4358 20.0028 1.1578 19.738C0.879808 19.4733 0.723633 19.1142 0.723633 18.7397C0.723633 18.3653 0.879808 18.0062 1.1578 17.7414C1.4358 17.4767 1.81284 17.3279 2.20598 17.3279Z" fill="#333333"/>
</svg>
