<svg width="22" height="17" viewBox="0 0 22 17" fill="none" xmlns="http://www.w3.org/2000/svg">
<path d="M20.7807 0.324005H14.445C14.0099 0.324005 13.4006 0.576378 13.0933 0.88366L5.23811 8.7389C5.08999 8.88771 5.00684 9.08912 5.00684 9.29908C5.00684 9.50904 5.08999 9.71045 5.23811 9.85926L12.0374 16.6585C12.1862 16.8067 12.3876 16.8898 12.5976 16.8898C12.8075 16.8898 13.0089 16.8067 13.1578 16.6585L21.013 8.80331C21.3213 8.49497 21.5726 7.88674 21.5726 7.45169V1.11597C21.5721 0.906099 21.4885 0.704984 21.3401 0.556582C21.1917 0.40818 20.9906 0.324563 20.7807 0.324005ZM16.8209 6.65973C16.6128 6.65966 16.4068 6.6186 16.2146 6.53891C16.0223 6.45922 15.8477 6.34245 15.7006 6.19527C15.5536 6.0481 15.4369 5.87339 15.3573 5.68113C15.2778 5.48886 15.2369 5.28281 15.2369 5.07474C15.237 4.86667 15.278 4.66064 15.3577 4.46843C15.4374 4.27623 15.5542 4.10159 15.7014 3.95451C15.8486 3.80743 16.0233 3.69078 16.2155 3.61122C16.4078 3.53165 16.6138 3.49074 16.8219 3.49081C17.2421 3.49095 17.6451 3.65802 17.9421 3.95526C18.2392 4.2525 18.406 4.65557 18.4058 5.0758C18.4057 5.49602 18.2386 5.89898 17.9414 6.19602C17.6442 6.49307 17.2411 6.65987 16.8209 6.65973Z" fill="#FFAF19"/>
<path d="M2.56518 9.29961L11.5408 0.324005H10.2208C9.78579 0.324005 9.1765 0.576378 8.86922 0.88366L1.01398 8.7389C0.865868 8.88771 0.782715 9.08912 0.782715 9.29908C0.782715 9.50904 0.865868 9.71045 1.01398 9.85926L7.81327 16.6585C7.96208 16.8067 8.16349 16.8898 8.37345 16.8898C8.58341 16.8898 8.78482 16.8067 8.93363 16.6585L9.42993 16.1622L2.56624 9.29855L2.56518 9.29961Z" fill="#FFAF19"/>
</svg>
