<svg width="21" height="21" viewBox="0 0 21 21" fill="none" xmlns="http://www.w3.org/2000/svg">
<path d="M10.5858 1.71045C7.03345 1.71045 4.15112 4.30482 4.15112 7.50164C4.15112 12.6494 10.5858 19.7275 10.5858 19.7275C10.5858 19.7275 17.0204 12.6494 17.0204 7.50164C17.0204 4.30482 14.1381 1.71045 10.5858 1.71045ZM10.5858 10.719C10.0767 10.719 9.57909 10.568 9.15582 10.2852C8.73255 10.0024 8.40265 9.6004 8.20784 9.13008C8.01303 8.65977 7.96206 8.14225 8.06137 7.64297C8.16069 7.14369 8.40582 6.68507 8.76579 6.32511C9.12575 5.96515 9.58437 5.72001 10.0836 5.6207C10.5829 5.52139 11.1004 5.57236 11.5708 5.76717C12.0411 5.96198 12.4431 6.29188 12.7259 6.71515C13.0087 7.13842 13.1596 7.63605 13.1596 8.14511C13.1589 8.82751 12.8875 9.48175 12.405 9.96428C11.9224 10.4468 11.2682 10.7182 10.5858 10.719Z" fill="#373737"/>
</svg>
