<svg width="33" height="33" viewBox="0 0 33 33" fill="none" xmlns="http://www.w3.org/2000/svg">
<path d="M16.3333 0C14.5387 0 12.7843 0.508686 11.292 1.46173C9.79982 2.41478 8.63678 3.76938 7.94998 5.35424C7.26319 6.9391 7.08349 8.68303 7.43362 10.3655C7.78374 12.048 8.64796 13.5934 9.917 14.8064C11.186 16.0194 12.8029 16.8455 14.5631 17.1802C16.3233 17.5148 18.1478 17.3431 19.8058 16.6866C21.4639 16.0301 22.8811 14.9184 23.8782 13.4921C24.8752 12.0658 25.4074 10.3888 25.4074 8.67341C25.4074 6.37308 24.4514 4.16696 22.7497 2.54038C21.048 0.913803 18.7399 0 16.3333 0ZM16.3333 13.8775C15.2565 13.8775 14.2039 13.5722 13.3086 13.0004C12.4132 12.4286 11.7154 11.6158 11.3033 10.6649C10.8912 9.714 10.7834 8.66764 10.9935 7.65815C11.2036 6.64867 11.7221 5.72139 12.4835 4.99359C13.2449 4.2658 14.2151 3.77016 15.2712 3.56936C16.3273 3.36856 17.422 3.47162 18.4168 3.8655C19.4117 4.25938 20.262 4.9264 20.8602 5.7822C21.4585 6.638 21.7778 7.64415 21.7778 8.67341C21.7778 10.0536 21.2042 11.3773 20.1831 12.3532C19.1621 13.3292 17.7773 13.8775 16.3333 13.8775ZM32.6667 32.959V31.2243C32.6667 28.0038 31.3282 24.9153 28.9458 22.638C26.5634 20.3608 23.3322 19.0815 19.963 19.0815H12.7037C9.33447 19.0815 6.10324 20.3608 3.72083 22.638C1.33842 24.9153 0 28.0038 0 31.2243V32.959H3.62963V31.2243C3.62963 28.9239 4.58565 26.7178 6.28736 25.0913C7.98908 23.4647 10.2971 22.5509 12.7037 22.5509H19.963C22.3696 22.5509 24.6776 23.4647 26.3793 25.0913C28.081 26.7178 29.037 28.9239 29.037 31.2243V32.959H32.6667Z" fill="#FFAF19"/>
</svg>
