<svg width="28" height="33" viewBox="0 0 28 33" fill="none" xmlns="http://www.w3.org/2000/svg">
<g clip-path="url(#clip0_87_1971)">
<path d="M26.1981 11.0414C24.0658 12.359 22.7488 14.6178 22.7488 17.1276C22.7488 19.9512 24.4421 22.5237 27.0134 23.5904C26.5116 25.2218 25.7591 26.7276 24.8183 28.108C23.4386 30.0531 21.9962 32.061 19.8639 32.061C17.7316 32.061 17.1044 30.8061 14.5958 30.8061C12.1499 30.8061 11.2719 32.1237 9.26506 32.1237C7.25818 32.1237 5.87845 30.3041 4.31058 28.0453C2.24099 24.908 1.04941 21.2688 0.986694 17.4414C0.986694 11.2296 5.00045 7.90411 9.0142 7.90411C11.1465 7.90411 12.9025 9.2845 14.2195 9.2845C15.4738 9.2845 17.4807 7.84137 19.8639 7.84137C22.3725 7.77862 24.7556 8.97078 26.1981 11.0414ZM18.735 5.20607C19.8012 3.95117 20.3656 2.38254 20.4283 0.751169C20.4283 0.562934 20.4283 0.311954 20.3656 0.123718C18.5469 0.311954 16.8536 1.19038 15.662 2.57078C14.5958 3.76293 13.9687 5.26882 13.906 6.90019C13.906 7.08842 13.906 7.27666 13.9687 7.46489C14.0941 7.46489 14.2822 7.52764 14.4077 7.52764C16.101 7.40215 17.6688 6.52372 18.735 5.20607Z" fill="black"/>
</g>
<defs>
<clipPath id="clip0_87_1971">
<rect width="26.0267" height="32" fill="white" transform="translate(0.986694 0.123718)"/>
</clipPath>
</defs>
</svg>
