<svg width="32" height="33" viewBox="0 0 32 33" fill="none" xmlns="http://www.w3.org/2000/svg">
<g clip-path="url(#clip0_87_1975)">
<path d="M32 16.1237C32 7.28716 24.8366 0.123724 16 0.123724C7.16344 0.123724 0 7.28716 0 16.1237C0 24.1098 5.85097 30.729 13.5 31.9294V20.7487H9.4375V16.1237H13.5V12.5987C13.5 8.58872 15.8887 6.37372 19.5434 6.37372C21.294 6.37372 23.125 6.68622 23.125 6.68622V10.6237H21.1074C19.1198 10.6237 18.5 11.8571 18.5 13.1224V16.1237H22.9375L22.2281 20.7487H18.5V31.9294C26.149 30.729 32 24.1098 32 16.1237Z" fill="#1877F2"/>
<path d="M22.2281 20.7487L22.9375 16.1237H18.5V13.1224C18.5 11.8571 19.1198 10.6237 21.1074 10.6237H23.125V6.68622C23.125 6.68622 21.294 6.37372 19.5434 6.37372C15.8887 6.37372 13.5 8.58872 13.5 12.5987V16.1237H9.4375V20.7487H13.5V31.9293C14.3146 32.0572 15.1495 32.1237 16 32.1237C16.8505 32.1237 17.6854 32.0572 18.5 31.9293V20.7487H22.2281Z" fill="white"/>
</g>
<defs>
<clipPath id="clip0_87_1975">
<rect width="32" height="32" fill="white" transform="translate(0 0.123718)"/>
</clipPath>
</defs>
</svg>
