<svg width="32" height="33" viewBox="0 0 32 33" fill="none" xmlns="http://www.w3.org/2000/svg">
<path d="M30.08 16.4571C30.08 15.4171 29.9867 14.4171 29.8133 13.4571H16V19.1304H23.8933C23.5533 20.9637 22.52 22.5171 20.9667 23.5571V27.2371H25.7067C28.48 24.6837 30.08 20.9237 30.08 16.4571Z" fill="#4285F4"/>
<path d="M16 30.7904C19.96 30.7904 23.28 29.4771 25.7066 27.2371L20.9666 23.5571C19.6533 24.4371 17.9733 24.9571 16 24.9571C12.18 24.9571 8.94664 22.3771 7.79331 18.9104H2.89331V22.7104C5.30664 27.5037 10.2666 30.7904 16 30.7904Z" fill="#34A853"/>
<path d="M7.79338 18.9104C7.50004 18.0304 7.33338 17.0904 7.33338 16.1237C7.33338 15.157 7.50004 14.217 7.79338 13.337V9.53705H2.89338C1.86671 11.5809 1.33247 13.8365 1.33338 16.1237C1.33338 18.4904 1.90004 20.7304 2.89338 22.7104L7.79338 18.9104Z" fill="#FBBC05"/>
<path d="M16 7.2904C18.1533 7.2904 20.0866 8.0304 21.6066 9.48373L25.8133 5.27706C23.2733 2.9104 19.9533 1.45706 16 1.45706C10.2666 1.45706 5.30664 4.74373 2.89331 9.53706L7.79331 13.3371C8.94664 9.8704 12.18 7.2904 16 7.2904Z" fill="#EA4335"/>
</svg>
