<svg width="28" height="43" viewBox="0 0 28 43" fill="none" xmlns="http://www.w3.org/2000/svg">
<path fill-rule="evenodd" clip-rule="evenodd" d="M24.5051 16.7508V11.2749C24.5051 8.37121 23.3983 5.58647 21.4282 3.53327C19.4581 1.48007 16.7861 0.326599 14 0.326599C11.2139 0.326599 8.54188 1.48007 6.5718 3.53327C4.60172 5.58647 3.49494 8.37121 3.49494 11.2749V16.7508C2.56637 16.7531 1.67668 17.1395 1.02135 17.8251C0.366014 18.5107 -0.00134023 19.4395 3.6744e-06 20.4072V38.6737C-0.000217886 39.1531 0.09018 39.628 0.266036 40.071C0.441893 40.5141 0.699763 40.9167 1.02492 41.256C1.35009 41.5952 1.73617 41.8643 2.16114 42.048C2.5861 42.2317 3.04162 42.3264 3.50169 42.3266H24.5051C25.433 42.3243 26.3222 41.9383 26.9775 41.2535C27.6327 40.5686 28.0004 39.6408 28 38.6737V20.4072C28.0013 19.4395 27.634 18.5107 26.9787 17.8251C26.3233 17.1395 25.4336 16.7531 24.5051 16.7508ZM6.99663 11.2749C6.96752 10.2978 7.12704 9.32454 7.46572 8.41293C7.80441 7.50131 8.31535 6.66989 8.96824 5.968C9.62112 5.26612 10.4026 4.70807 11.2664 4.32697C12.1302 3.94588 13.0586 3.7495 13.9966 3.7495C14.9346 3.7495 15.863 3.94588 16.7268 4.32697C17.5906 4.70807 18.3721 5.26612 19.025 5.968C19.6779 6.66989 20.1888 7.50131 20.5275 8.41293C20.8662 9.32454 21.0257 10.2978 20.9966 11.2749V16.7508H6.99663V11.2749ZM24.5051 38.6737H3.49494V20.4072H24.5051V38.6737ZM12.2492 30.8615V33.1943C12.2492 33.6782 12.4336 34.1423 12.762 34.4845C13.0903 34.8267 13.5356 35.019 14 35.019C14.4644 35.019 14.9097 34.8267 15.238 34.4845C15.5664 34.1423 15.7508 33.6782 15.7508 33.1943V30.8615C16.4184 30.4598 16.9401 29.8398 17.2351 29.0976C17.5301 28.3554 17.5819 27.5325 17.3824 26.7565C17.1829 25.9805 16.7432 25.2948 16.1317 24.8057C15.5201 24.3167 14.7708 24.0516 14 24.0516C13.2292 24.0516 12.4799 24.3167 11.8683 24.8057C11.2568 25.2948 10.8171 25.9805 10.6176 26.7565C10.4181 27.5325 10.4699 28.3554 10.7649 29.0976C11.0599 29.8398 11.5816 30.4598 12.2492 30.8615Z" fill="#333333"/>
</svg>
