<svg width="33" height="33" viewBox="0 0 33 33" fill="none" xmlns="http://www.w3.org/2000/svg">
<path d="M16.3333 0.0205078C14.5387 0.0205078 12.7843 0.529194 11.292 1.48224C9.79982 2.43529 8.63678 3.78989 7.94998 5.37475C7.26319 6.95961 7.08349 8.70354 7.43362 10.386C7.78374 12.0685 8.64796 13.6139 9.917 14.8269C11.186 16.0399 12.8029 16.866 14.5631 17.2007C16.3233 17.5353 18.1478 17.3636 19.8058 16.7071C21.4639 16.0506 22.8811 14.9389 23.8782 13.5126C24.8752 12.0863 25.4074 10.4094 25.4074 8.69392C25.4074 6.39359 24.4514 4.18747 22.7497 2.56089C21.048 0.934311 18.7399 0.0205078 16.3333 0.0205078ZM16.3333 13.898C15.2565 13.898 14.2039 13.5928 13.3086 13.0209C12.4132 12.4491 11.7154 11.6363 11.3033 10.6854C10.8912 9.73451 10.7834 8.68815 10.9935 7.67866C11.2036 6.66917 11.7221 5.7419 12.4835 5.0141C13.2449 4.2863 14.2151 3.79067 15.2712 3.58987C16.3273 3.38907 17.422 3.49213 18.4168 3.88601C19.4117 4.27989 20.262 4.9469 20.8602 5.80271C21.4585 6.65851 21.7778 7.66466 21.7778 8.69392C21.7778 10.0741 21.2042 11.3978 20.1831 12.3737C19.1621 13.3497 17.7773 13.898 16.3333 13.898ZM32.6667 32.9795V31.2448C32.6667 28.0243 31.3282 24.9358 28.9458 22.6585C26.5634 20.3813 23.3322 19.102 19.963 19.102H12.7037C9.33447 19.102 6.10324 20.3813 3.72083 22.6585C1.33842 24.9358 0 28.0243 0 31.2448V32.9795H3.62963V31.2448C3.62963 28.9445 4.58565 26.7383 6.28736 25.1118C7.98908 23.4852 10.2971 22.5714 12.7037 22.5714H19.963C22.3696 22.5714 24.6776 23.4852 26.3793 25.1118C28.081 26.7383 29.037 28.9445 29.037 31.2448V32.9795H32.6667Z" fill="#FFAF19"/>
</svg>
