<svg width="189" height="259" viewBox="0 0 189 259" fill="none" xmlns="http://www.w3.org/2000/svg">
<path d="M176 142.53V100.53C176 100.53 194 130.306 176 142.53Z" fill="white"/>
<path d="M176.904 142.53L145 113.53C145 113.53 179.032 121.779 176.904 142.53Z" fill="white"/>
<path d="M188.323 84.0993L111.3 127.647C111.031 127.799 110.71 127.841 110.408 127.764C110.106 127.688 109.848 127.499 109.69 127.238L60.1598 45.2598C60.0027 44.999 59.9589 44.6886 60.0381 44.3966C60.1172 44.1046 60.3129 43.8549 60.5821 43.7023L137.604 0.155099C137.874 0.00308412 138.195 -0.0392844 138.497 0.0372884C138.799 0.113861 139.057 0.303123 139.214 0.563552L188.745 82.5419C188.902 82.8027 188.946 83.1131 188.867 83.4051C188.787 83.697 188.592 83.9467 188.323 84.0993Z" fill="white"/>
<path d="M188.323 84.0993L111.3 127.647C111.031 127.799 110.71 127.841 110.408 127.764C110.106 127.688 109.848 127.499 109.69 127.238L60.1598 45.2598C60.0027 44.999 59.9589 44.6886 60.0381 44.3966C60.1172 44.1046 60.3129 43.8549 60.5821 43.7023L137.604 0.155099C137.874 0.00308412 138.195 -0.0392844 138.497 0.0372884C138.799 0.113861 139.057 0.303123 139.214 0.563552L188.745 82.5419C188.902 82.8027 188.946 83.1131 188.867 83.4051C188.787 83.697 188.592 83.9467 188.323 84.0993ZM60.8196 44.0955C60.6581 44.187 60.5407 44.3369 60.4932 44.512C60.4457 44.6872 60.472 44.8735 60.5663 45.03L110.097 127.008C110.191 127.165 110.346 127.278 110.527 127.324C110.708 127.37 110.901 127.345 111.063 127.253L188.085 83.7062C188.247 83.6146 188.364 83.4648 188.411 83.2896C188.459 83.1144 188.433 82.9282 188.338 82.7717L138.808 0.793341C138.713 0.637075 138.558 0.523511 138.377 0.477567C138.196 0.431622 138.004 0.457048 137.842 0.548267L60.8196 44.0955Z" fill="#3F3D56"/>
<path d="M110.33 52.2597L91.227 63.0604C90.9574 63.2124 90.6365 63.2547 90.3347 63.1782C90.0328 63.1016 89.7747 62.9123 89.617 62.6519L78.4518 44.1724C78.2947 43.9116 78.2509 43.6012 78.3301 43.3092C78.4092 43.0172 78.6049 42.7675 78.8741 42.6149L97.9772 31.8143C98.2468 31.6623 98.5677 31.6199 98.8695 31.6965C99.1714 31.773 99.4295 31.9623 99.5872 32.2227L110.752 50.7023C110.91 50.963 110.953 51.2735 110.874 51.5655C110.795 51.8574 110.599 52.1071 110.33 52.2597V52.2597ZM79.1116 43.0081C78.9501 43.0997 78.8327 43.2495 78.7852 43.4247C78.7377 43.5998 78.764 43.7861 78.8583 43.9426L90.0234 62.4221C90.1181 62.5784 90.2729 62.6919 90.454 62.7379C90.6351 62.7838 90.8277 62.7584 90.9894 62.6672L110.093 51.8665C110.254 51.775 110.372 51.6252 110.419 51.45C110.467 51.2748 110.44 51.0885 110.346 50.9321L99.1808 32.4525C99.0862 32.2963 98.9313 32.1827 98.7502 32.1368C98.5691 32.0908 98.3765 32.1162 98.2148 32.2075L79.1116 43.0081Z" fill="#F2F2F2"/>
<path d="M106.209 57.6218L87.1056 68.4225C86.863 68.5593 86.5742 68.5974 86.3025 68.5285C86.0309 68.4596 85.7986 68.2893 85.6566 68.0549L74.4915 49.5753C74.35 49.3406 74.3106 49.0612 74.3819 48.7985C74.4531 48.5357 74.6292 48.311 74.8715 48.1736L93.9747 37.373C94.2173 37.2362 94.5061 37.198 94.7777 37.267C95.0494 37.3359 95.2817 37.5062 95.4237 37.7406L106.589 56.2201C106.73 56.4548 106.77 56.7342 106.698 56.997C106.627 57.2598 106.451 57.4845 106.209 57.6218V57.6218Z" fill="#FFAF19"/>
<path d="M96.4007 52.8055C96.8747 53.5872 97.0066 54.5199 96.7674 55.3984C96.5283 56.277 95.9376 57.0294 95.1255 57.4903L94.4188 57.8912L94.8312 58.5714C94.9405 58.7517 94.971 58.967 94.9158 59.1697C94.8606 59.3725 94.7243 59.5461 94.5369 59.6525C94.3495 59.7588 94.1263 59.7891 93.9164 59.7368C93.7065 59.6844 93.5272 59.5537 93.4178 59.3733L93.0054 58.6932L92.2987 59.0942C91.4866 59.555 90.5194 59.6864 89.61 59.4596C88.7005 59.2327 87.9234 58.6662 87.4494 57.8845C87.3401 57.7042 87.3096 57.4889 87.3648 57.2862C87.42 57.0834 87.5563 56.9098 87.7437 56.8034C87.9311 56.6971 88.1543 56.6668 88.3642 56.7191C88.5741 56.7715 88.7534 56.9022 88.8628 57.0826C89.1193 57.5021 89.5377 57.8061 90.0269 57.9281C90.516 58.0501 91.0362 57.9803 91.474 57.7339L94.3007 56.13C94.738 55.8819 95.056 55.4767 95.1848 55.0037C95.3136 54.5306 95.2426 54.0284 94.9874 53.6075C94.7322 53.1866 94.3137 52.8815 93.824 52.7594C93.3343 52.6372 92.8135 52.708 92.3762 52.9561L89.785 54.4264C88.9729 54.8872 88.0057 55.0187 87.0963 54.7918C86.1868 54.565 85.4097 53.9984 84.9357 53.2167C84.4618 52.4351 84.3299 51.5024 84.569 50.6238C84.8082 49.7453 85.3988 48.9928 86.211 48.532L86.6821 48.2647L86.2697 47.5846C86.1604 47.4042 86.1299 47.1889 86.1851 46.9862C86.2403 46.7835 86.3766 46.6098 86.564 46.5035C86.7515 46.3971 86.9747 46.3668 87.1845 46.4191C87.3944 46.4715 87.5737 46.6022 87.6831 46.7826L88.0955 47.4627L88.3311 47.3291C89.1432 46.8682 90.1104 46.7368 91.0198 46.9636C91.9293 47.1905 92.7064 47.7571 93.1804 48.5387C93.2897 48.7191 93.3202 48.9343 93.265 49.1371C93.2098 49.3398 93.0735 49.5135 92.8861 49.6198C92.6986 49.7261 92.4755 49.7565 92.2656 49.7041C92.0557 49.6518 91.8764 49.521 91.767 49.3407C91.5105 48.9211 91.0921 48.6172 90.6029 48.4952C90.1138 48.3732 89.5936 48.4429 89.1558 48.6893L87.0358 49.8922C86.5985 50.1404 86.2804 50.5455 86.1517 51.0186C86.0229 51.4917 86.0939 51.9939 86.3491 52.4148C86.6043 52.8357 87.0228 53.1408 87.5125 53.2629C88.0022 53.3851 88.5229 53.3143 88.9603 53.0661L91.5514 51.5959C92.3636 51.1351 93.3308 51.0036 94.2402 51.2305C95.1496 51.4573 95.9268 52.0239 96.4007 52.8055V52.8055Z" fill="#333333"/>
<path opacity="0.1" d="M54.9995 42.6097C54.9995 44.4499 54.2426 46.2146 52.8953 47.5158C51.548 48.817 49.7207 49.548 47.8153 49.548H46.1574V51.1491C46.1574 51.5738 45.9827 51.981 45.6718 52.2813C45.3609 52.5816 44.9392 52.7503 44.4995 52.7503C44.0598 52.7503 43.6381 52.5816 43.3272 52.2813C43.0163 51.981 42.8416 51.5738 42.8416 51.1491V49.548H41.1837C39.2784 49.548 37.451 48.817 36.1037 47.5158C34.7564 46.2146 33.9995 44.4499 33.9995 42.6097C33.9995 42.1851 34.1742 41.7778 34.4851 41.4775C34.796 41.1773 35.2177 41.0086 35.6574 41.0086C36.0971 41.0086 36.5188 41.1773 36.8297 41.4775C37.1406 41.7778 37.3153 42.1851 37.3153 42.6097C37.3189 43.5995 37.7277 44.5477 38.4524 45.2476C39.177 45.9475 40.1589 46.3422 41.1837 46.3457H47.8153C48.8413 46.3457 49.8252 45.9521 50.5507 45.2515C51.2762 44.5508 51.6837 43.6006 51.6837 42.6097C51.6837 41.6189 51.2762 40.6686 50.5507 39.968C49.8252 39.2673 48.8413 38.8737 47.8153 38.8737H41.7364C39.831 38.8737 38.0037 38.1427 36.6563 36.8416C35.309 35.5404 34.5521 33.7756 34.5521 31.9355C34.5521 30.0953 35.309 28.3305 36.6563 27.0294C38.0037 25.7282 39.831 24.9972 41.7364 24.9972H42.8416V23.3961C42.8416 22.9714 43.0163 22.5642 43.3272 22.2639C43.6381 21.9636 44.0598 21.7949 44.4995 21.7949C44.9392 21.7949 45.3609 21.9636 45.6718 22.2639C45.9827 22.5642 46.1574 22.9714 46.1574 23.3961V24.9972H46.71C48.6154 24.9972 50.4427 25.7282 51.79 27.0294C53.1373 28.3305 53.8942 30.0953 53.8942 31.9355C53.8942 32.3601 53.7196 32.7674 53.4087 33.0676C53.0977 33.3679 52.6761 33.5366 52.2364 33.5366C51.7967 33.5366 51.375 33.3679 51.064 33.0676C50.7531 32.7674 50.5785 32.3601 50.5785 31.9355C50.5748 30.9457 50.1661 29.9975 49.4414 29.2976C48.7167 28.5977 47.7349 28.203 46.71 28.1995H41.7364C40.7104 28.1995 39.7264 28.5931 39.001 29.2937C38.2755 29.9944 37.8679 30.9446 37.8679 31.9355C37.8679 32.9263 38.2755 33.8766 39.001 34.5772C39.7264 35.2778 40.7104 35.6715 41.7364 35.6715H47.8153C49.7207 35.6715 51.548 36.4025 52.8953 37.7036C54.2426 39.0048 54.9995 40.7696 54.9995 42.6097V42.6097Z" fill="#333333"/>
<path opacity="0.1" d="M27.9995 30.935C27.9995 32.0851 27.531 33.1881 26.6969 34.0013C25.8629 34.8146 24.7317 35.2714 23.5521 35.2714H22.5258V36.2722C22.5258 36.5376 22.4177 36.7921 22.2252 36.9798C22.0328 37.1674 21.7717 37.2729 21.4995 37.2729C21.2273 37.2729 20.9663 37.1674 20.7738 36.9798C20.5813 36.7921 20.4732 36.5376 20.4732 36.2722V35.2714H19.4469C18.2674 35.2714 17.1362 34.8146 16.3021 34.0013C15.4681 33.1881 14.9995 32.0851 14.9995 30.935C14.9995 30.6696 15.1076 30.4151 15.3001 30.2274C15.4926 30.0398 15.7536 29.9343 16.0258 29.9343C16.298 29.9343 16.5591 30.0398 16.7515 30.2274C16.944 30.4151 17.0521 30.6696 17.0521 30.935C17.0544 31.5536 17.3074 32.1463 17.756 32.5837C18.2046 33.0211 18.8125 33.2678 19.4469 33.27H23.5521C24.1873 33.27 24.7964 33.024 25.2455 32.5861C25.6946 32.1482 25.9469 31.5543 25.9469 30.935C25.9469 30.3158 25.6946 29.7218 25.2455 29.2839C24.7964 28.846 24.1873 28.6 23.5521 28.6H19.789C18.6095 28.6 17.4783 28.1432 16.6442 27.3299C15.8102 26.5167 15.3416 25.4137 15.3416 24.2636C15.3416 23.1135 15.8102 22.0105 16.6442 21.1973C17.4783 20.3841 18.6095 19.9272 19.789 19.9272H20.4732V18.9265C20.4732 18.6611 20.5813 18.4066 20.7738 18.2189C20.9663 18.0312 21.2273 17.9258 21.4995 17.9258C21.7717 17.9258 22.0328 18.0312 22.2252 18.2189C22.4177 18.4066 22.5258 18.6611 22.5258 18.9265V19.9272H22.8679C24.0474 19.9272 25.1787 20.3841 26.0127 21.1973C26.8467 22.0105 27.3153 23.1135 27.3153 24.2636C27.3153 24.529 27.2072 24.7836 27.0147 24.9712C26.8222 25.1589 26.5612 25.2643 26.289 25.2643C26.0168 25.2643 25.7557 25.1589 25.5633 24.9712C25.3708 24.7836 25.2627 24.529 25.2627 24.2636C25.2604 23.645 25.0074 23.0524 24.5588 22.615C24.1102 22.1775 23.5024 21.9308 22.8679 21.9286H19.789C19.1539 21.9286 18.5448 22.1746 18.0957 22.6125C17.6466 23.0504 17.3942 23.6443 17.3942 24.2636C17.3942 24.8829 17.6466 25.4768 18.0957 25.9147C18.5448 26.3526 19.1539 26.5986 19.789 26.5986H23.5521C24.7317 26.5986 25.8629 27.0555 26.6969 27.8687C27.531 28.682 27.9995 29.7849 27.9995 30.935V30.935Z" fill="#333333"/>
<path d="M152.318 43.6857L92.5698 77.4664C92.3273 77.6035 92.0384 77.6418 91.7666 77.5729C91.4949 77.504 91.2626 77.3334 91.1208 77.0988C90.9791 76.8642 90.9395 76.5847 91.0107 76.3218C91.082 76.0589 91.2583 75.8342 91.5008 75.6971L151.249 41.9164C151.369 41.8485 151.502 41.8041 151.64 41.7859C151.778 41.7676 151.918 41.7757 152.052 41.8099C152.187 41.844 152.313 41.9035 152.424 41.9848C152.535 42.0662 152.628 42.1678 152.698 42.284C152.768 42.4002 152.814 42.5286 152.833 42.6619C152.852 42.7952 152.843 42.9308 152.808 43.061C152.773 43.1911 152.711 43.3133 152.627 43.4205C152.543 43.5277 152.438 43.6178 152.318 43.6857V43.6857Z" fill="#CCCCCC"/>
<path d="M141.571 57.9376L96.2515 83.5604C96.1314 83.6283 95.9986 83.6727 95.8608 83.691C95.723 83.7092 95.5828 83.7011 95.4483 83.6669C95.1765 83.598 94.9442 83.4274 94.8025 83.1928C94.6607 82.9582 94.6211 82.6787 94.6924 82.4158C94.7636 82.153 94.9399 81.9282 95.1825 81.7911L140.502 56.1683C140.622 56.1004 140.755 56.0561 140.892 56.0378C141.03 56.0195 141.17 56.0277 141.305 56.0618C141.439 56.096 141.566 56.1554 141.677 56.2368C141.787 56.3181 141.881 56.4198 141.951 56.5359C142.021 56.6521 142.067 56.7805 142.086 56.9139C142.105 57.0472 142.096 57.1828 142.061 57.3129C142.025 57.4431 141.964 57.5653 141.88 57.6724C141.796 57.7796 141.691 57.8698 141.571 57.9377V57.9376Z" fill="#CCCCCC"/>
<path d="M138.574 21.3888L112.155 36.3259C111.912 36.463 111.623 36.5013 111.352 36.4324C111.08 36.3634 110.848 36.1929 110.706 35.9583C110.564 35.7236 110.524 35.4441 110.596 35.1813C110.667 34.9184 110.843 34.6937 111.086 34.5566L137.505 19.6195C137.748 19.4824 138.037 19.4441 138.308 19.513C138.443 19.5471 138.569 19.6066 138.68 19.6879C138.791 19.7693 138.884 19.8709 138.954 19.9871C139.024 20.1033 139.07 20.2317 139.089 20.365C139.108 20.4983 139.099 20.6339 139.064 20.7641C139.029 20.8943 138.967 21.0164 138.883 21.1236C138.799 21.2308 138.694 21.3209 138.574 21.3888Z" fill="#CCCCCC"/>
<path d="M135.662 31.2111L115.836 42.4204C115.716 42.4883 115.584 42.5326 115.446 42.5509C115.308 42.5692 115.168 42.561 115.033 42.5269C114.899 42.4927 114.772 42.4333 114.662 42.3519C114.551 42.2706 114.458 42.1689 114.387 42.0527C114.317 41.9366 114.271 41.8082 114.252 41.6748C114.234 41.5415 114.242 41.4059 114.277 41.2758C114.313 41.1456 114.374 41.0234 114.458 40.9162C114.542 40.8091 114.647 40.7189 114.767 40.651L134.593 29.4418C134.836 29.3046 135.125 29.2663 135.397 29.3353C135.668 29.4042 135.901 29.5748 136.042 29.8094C136.184 30.044 136.224 30.3235 136.152 30.5864C136.081 30.8492 135.905 31.074 135.662 31.2111Z" fill="#CCCCCC"/>
<path d="M159.682 55.8742L99.9341 89.6549C99.6915 89.792 99.4026 89.8303 99.1309 89.7614C98.8591 89.6924 98.6268 89.5219 98.4851 89.2873C98.3433 89.0526 98.3037 88.7731 98.375 88.5103C98.4463 88.2474 98.6225 88.0227 98.8651 87.8856L158.613 54.1049C158.856 53.9677 159.145 53.9294 159.416 53.9984C159.688 54.0673 159.921 54.2378 160.062 54.4725C160.204 54.7071 160.244 54.9866 160.172 55.2495C160.101 55.5123 159.925 55.737 159.682 55.8742V55.8742Z" fill="#CCCCCC"/>
<path d="M148.935 70.1271L103.616 95.7499C103.496 95.8178 103.363 95.8621 103.225 95.8804C103.087 95.8987 102.947 95.8905 102.813 95.8564C102.678 95.8222 102.552 95.7628 102.441 95.6815C102.33 95.6001 102.237 95.4984 102.167 95.3823C102.097 95.2661 102.051 95.1377 102.032 95.0044C102.013 94.8711 102.021 94.7354 102.057 94.6053C102.092 94.4751 102.153 94.353 102.237 94.2458C102.322 94.1386 102.427 94.0485 102.547 93.9806L147.866 68.3578C147.986 68.2899 148.119 68.2455 148.257 68.2273C148.394 68.209 148.535 68.2172 148.669 68.2513C148.804 68.2854 148.93 68.3449 149.041 68.4262C149.152 68.5076 149.245 68.6092 149.315 68.7254C149.385 68.8416 149.431 68.97 149.45 69.1033C149.469 69.2366 149.46 69.3722 149.425 69.5024C149.39 69.6326 149.328 69.7547 149.244 69.8619C149.16 69.9691 149.055 70.0592 148.935 70.1271V70.1271Z" fill="#CCCCCC"/>
<path d="M167.047 68.0627L107.298 101.843C107.178 101.911 107.046 101.956 106.908 101.974C106.77 101.992 106.63 101.984 106.495 101.95C106.361 101.916 106.234 101.856 106.123 101.775C106.013 101.694 105.92 101.592 105.849 101.476C105.779 101.36 105.733 101.231 105.714 101.098C105.696 100.965 105.704 100.829 105.739 100.699C105.775 100.569 105.836 100.446 105.92 100.339C106.004 100.232 106.109 100.142 106.229 100.074L165.978 66.2933C166.098 66.2254 166.23 66.1811 166.368 66.1628C166.506 66.1445 166.646 66.1527 166.781 66.1868C166.915 66.221 167.042 66.2804 167.152 66.3618C167.263 66.4431 167.356 66.5448 167.427 66.6609C167.497 66.7771 167.543 66.9055 167.561 67.0389C167.58 67.1722 167.572 67.3078 167.537 67.4379C167.501 67.5681 167.44 67.6903 167.356 67.7974C167.272 67.9046 167.167 67.9948 167.047 68.0627V68.0627Z" fill="#CCCCCC"/>
<path d="M170.728 74.1564L110.98 107.937C110.86 108.005 110.727 108.049 110.589 108.068C110.452 108.086 110.311 108.078 110.177 108.044C110.042 108.009 109.916 107.95 109.805 107.869C109.694 107.787 109.601 107.686 109.531 107.569C109.461 107.453 109.415 107.325 109.396 107.192C109.377 107.058 109.386 106.923 109.421 106.793C109.456 106.662 109.518 106.54 109.602 106.433C109.686 106.326 109.791 106.236 109.911 106.168L169.659 72.3871C169.779 72.3192 169.912 72.2748 170.05 72.2566C170.188 72.2383 170.328 72.2465 170.462 72.2806C170.597 72.3147 170.723 72.3742 170.834 72.4555C170.945 72.5369 171.038 72.6385 171.108 72.7547C171.178 72.8709 171.224 72.9993 171.243 73.1326C171.262 73.2659 171.254 73.4015 171.218 73.5317C171.183 73.6618 171.122 73.784 171.037 73.8912C170.953 73.9984 170.848 74.0885 170.728 74.1564V74.1564Z" fill="#CCCCCC"/>
<path d="M151.407 97.8822C152.237 96.9366 152.984 95.9257 153.641 94.86C154.23 93.8986 154.807 92.8707 154.937 91.7432C155.004 91.2631 154.952 90.7746 154.786 90.3174C154.621 89.8602 154.346 89.4473 153.984 89.1123C153.635 88.8006 153.192 88.6046 152.719 88.5526C152.247 88.5007 151.77 88.5955 151.357 88.8234C150.939 89.0554 150.594 89.3924 150.358 89.7987C150.122 90.205 150.004 90.6655 150.016 91.1314C150.05 91.6444 150.203 92.1434 150.464 92.5911C150.725 93.0388 151.088 93.4237 151.524 93.7171C153.29 94.9549 156.048 94.8902 157.93 93.9483C160.05 92.8874 161.146 90.1117 159.48 88.2116C159.134 87.8164 158.557 88.2581 158.644 88.6844C158.754 89.2602 159.087 89.7737 159.575 90.1199C160.064 90.466 160.67 90.6188 161.271 90.547C161.872 90.4752 162.422 90.1842 162.808 89.7334C163.194 89.2827 163.388 88.7062 163.35 88.1217L162.601 88.5451C163.519 88.9384 164.528 89.091 165.527 88.9874C166.525 88.8838 167.477 88.5277 168.288 87.9549C168.689 87.673 169.048 87.3381 169.352 86.96C169.719 86.4974 170.335 86.1986 170.833 85.8654L174.426 83.464C174.954 83.1108 174.452 82.269 173.919 82.6251L170.665 84.8C170.123 85.1624 169.577 85.5203 169.038 85.8874C168.653 86.1497 168.416 86.5733 168.066 86.8849C167.402 87.4624 166.582 87.8455 165.702 87.9895C164.822 88.1335 163.918 88.0326 163.094 87.6984C163.018 87.6585 162.932 87.6383 162.845 87.6398C162.758 87.6413 162.672 87.6644 162.597 87.7069C162.522 87.7494 162.46 87.8099 162.415 87.8825C162.371 87.9551 162.347 88.0375 162.346 88.1217C162.385 88.4704 162.281 88.8202 162.055 89.0948C161.83 89.3695 161.501 89.5467 161.141 89.588C160.78 89.6293 160.418 89.5312 160.132 89.3152C159.846 89.0992 159.661 88.7827 159.615 88.4346L158.779 88.9074C159.853 90.1331 159.138 92.0131 157.9 92.8355C156.515 93.7553 154.47 93.915 152.909 93.3432C152.526 93.2158 152.175 93.0134 151.877 92.7486C151.578 92.4839 151.34 92.1625 151.176 91.8045C151.023 91.4811 150.98 91.1197 151.051 90.7712C151.123 90.4227 151.306 90.1046 151.574 89.8619C151.806 89.6398 152.119 89.5138 152.445 89.5104C152.772 89.507 153.087 89.6266 153.324 89.8438C153.583 90.099 153.772 90.4117 153.876 90.7544C153.98 91.0971 153.996 91.4594 153.921 91.8092C153.76 92.7826 153.204 93.6802 152.686 94.5117C152.095 95.4591 151.427 96.3593 150.688 97.2037C150.274 97.678 150.988 98.3616 151.407 97.8822L151.407 97.8822Z" fill="#333333"/>
<path d="M83.6431 115.285C83.463 115.465 83.2978 115.657 83.1491 115.861L60.0098 115.314L57.3104 110.542L49.3335 113.542L53.2637 122.438C53.5812 123.157 54.1311 123.757 54.831 124.147C55.5308 124.538 56.3427 124.699 57.1449 124.605L83.288 121.55C83.9047 122.305 84.7444 122.861 85.6956 123.143C86.6467 123.425 87.6641 123.421 88.6125 123.13C89.5609 122.839 90.3954 122.276 91.0048 121.515C91.6143 120.755 91.9699 119.833 92.0244 118.872C92.0789 117.911 91.8296 116.956 91.3097 116.136C90.7899 115.315 90.0242 114.667 89.1143 114.278C88.2044 113.889 87.1936 113.776 86.2163 113.956C85.2389 114.136 84.3414 114.6 83.6431 115.285V115.285Z" fill="#FFB7B7"/>
<path d="M8.21203 251.225H15.8202L19.4399 222.836L8.21089 222.837L8.21203 251.225Z" fill="#FFB7B7"/>
<path d="M6.27172 258.359L30.8042 258.358V258.058C30.804 255.608 29.7979 253.259 28.0072 251.527C26.2165 249.795 23.7879 248.821 21.2555 248.821H21.2549L6.27127 248.822L6.27172 258.359Z" fill="#333333"/>
<path d="M77.298 251.062L84.2944 248.17L76.0949 220.688L65.7688 224.956L77.298 251.062Z" fill="#FFB7B7"/>
<path d="M78.4111 258.359L100.971 249.036L100.849 248.76C99.8544 246.507 97.9751 244.729 95.6249 243.816C93.2748 242.904 90.6461 242.932 88.3172 243.894L88.3167 243.894L74.5378 249.588L78.4111 258.359Z" fill="#333333"/>
<path d="M45.1931 121.435L45.7437 130.059L29.6611 131.724L12.8337 133.466L17.7869 120.37L45.1931 121.435Z" fill="#FFB7B7"/>
<path d="M46.2499 130.171L52.4976 88.0383L41.6687 84.6052L38.4882 80.3857L23.0107 81.2717L20.7384 86.1955L12.4854 89.9679L13.7537 112.754L12.8285 131.814L46.2499 130.171Z" fill="#FFAF19"/>
<path d="M50.1821 118.88L61.1968 114.617L61.1498 114.427C61.1025 114.236 56.4146 95.2851 55.7921 92.2398C55.1436 89.067 52.7746 88.1899 52.674 88.1542L52.6005 88.1279L48.2414 89.4114L46.3269 103.963L50.1821 118.88Z" fill="#FFAF19"/>
<path d="M71.6312 246.073L86.2935 243.163L62.8589 180.61L54.8386 159.274C54.8386 159.274 49.7516 142.167 47.4533 135.547L46.0663 126.664L13.2329 130.18C13.2329 130.18 4.06265 143.207 6.84851 164.442L5.58852 244.254L20.2507 244.982L32.5319 164.487L54.0866 208.614C54.0866 208.614 60.8805 227.444 65.7413 231.526L71.6312 246.073Z" fill="#333333"/>
<path d="M26.4009 133.142C26.1427 133.136 25.8845 133.149 25.6285 133.183L10.311 116.396L12.0928 111.237L4.39541 107.618L0.32352 116.455C-0.00543079 117.169 -0.0860945 117.967 0.0936004 118.729C0.273295 119.491 0.703645 120.176 1.32009 120.681L21.4109 137.149C21.2577 138.1 21.4074 139.073 21.8401 139.94C22.2728 140.806 22.968 141.525 23.8332 142C24.6984 142.475 25.6927 142.684 26.6837 142.599C27.6747 142.515 28.6155 142.14 29.381 141.525C30.1465 140.91 30.7004 140.085 30.969 139.158C31.2376 138.231 31.2081 137.248 30.8846 136.338C30.5611 135.427 29.9588 134.634 29.1579 134.063C28.3569 133.492 27.3953 133.171 26.4009 133.142V133.142Z" fill="#FFB7B7"/>
<path d="M11.5328 118.03L17.9224 103.49L15.4302 93.3631L12.7451 90.0814C12.5485 90.0001 12.3365 89.9591 12.1226 89.961C11.9087 89.9629 11.6975 90.0078 11.5024 90.0927C10.5121 90.4782 9.66883 91.6599 8.99586 93.6049L3.00766 110.105L11.5328 118.03Z" fill="#FFAF19"/>
<path d="M44.6841 74.9989V64.0377C44.6841 60.1421 43.0844 56.4062 40.2369 53.6516C37.3894 50.8971 33.5273 49.3496 29.5004 49.3496C25.4734 49.3496 21.6114 50.8971 18.7639 53.6516C15.9164 56.4062 14.3166 60.1421 14.3166 64.0377V74.9989C14.3172 75.522 14.5323 76.0235 14.9147 76.3934C15.2971 76.7632 15.8155 76.9713 16.3562 76.9719H42.6445C43.1852 76.9713 43.7037 76.7632 44.086 76.3934C44.4684 76.0235 44.6835 75.522 44.6841 74.9989V74.9989Z" fill="#333333"/>
<path d="M32.6203 76.7162C26.4721 76.7162 21.4881 71.8949 21.4881 65.9475C21.4881 60 26.4721 55.1787 32.6203 55.1787C38.7684 55.1787 43.7524 60 43.7524 65.9475C43.7524 71.8949 38.7684 76.7162 32.6203 76.7162Z" fill="#FFB7B7"/>
<path d="M48.2759 64.9138C48.2723 61.8334 47.0057 58.8801 44.754 56.7019C42.5022 54.5236 39.4493 53.2984 36.2649 53.2949H33.9985C30.8141 53.2984 27.7612 54.5236 25.5095 56.7019C23.2578 58.8801 21.9912 61.8334 21.9876 64.9138V65.133H26.7769L28.4104 60.7083L28.7371 65.133H31.2122L32.0364 62.9005L32.2013 65.133H48.2758L48.2759 64.9138Z" fill="#333333"/>
<path d="M33.7159 78.2037C33.9408 77.9091 34.075 77.5591 34.1033 77.194C34.1315 76.8289 34.0526 76.4635 33.8756 76.1399C31.474 71.7211 28.1115 63.5563 32.5747 58.521L32.8955 58.1592H19.9384V76.9774L31.709 78.9864C31.8281 79.0068 31.9489 79.0171 32.0699 79.0172C32.3913 79.0172 32.708 78.9434 32.9941 78.802C33.2802 78.6606 33.5276 78.4555 33.7159 78.2037V78.2037Z" fill="#333333"/>
<path d="M184.864 245.024L177.988 247.401L165.237 222.876L175.386 219.368L184.864 245.024Z" fill="#9F616A"/>
<path d="M189 250.866L185.815 242.246L172.274 246.928C169.987 247.721 168.119 249.36 167.079 251.484C166.039 253.608 165.913 256.045 166.728 258.259L166.828 258.53L189 250.866Z" fill="#333333"/>
<path d="M140.151 251.603L132.849 251.602L129.375 224.357L140.152 224.358L140.151 251.603Z" fill="#9F616A"/>
<path d="M142.014 249.296L127.634 249.296H127.634C126.43 249.296 125.239 249.525 124.127 249.971C123.015 250.416 122.005 251.069 121.154 251.892C120.303 252.715 119.628 253.693 119.167 254.768C118.706 255.844 118.469 256.997 118.469 258.161V258.449L142.014 258.45L142.014 249.296Z" fill="#333333"/>
<path d="M156.792 77.5417L153.617 71.4717C153.617 71.4717 141.787 74.3388 140.711 80.9714L156.792 77.5417Z" fill="#F1F1F1"/>
<path d="M169.895 146.948L161.259 193.567L184.19 232.795L170.491 237.98L147.263 199.954L144.285 189.583L142.498 243.742L130.143 243.379L124.479 192.808L133.564 145.796L169.895 146.948Z" fill="#767676"/>
<path d="M153.502 157.968C166.189 157.968 174.244 155.621 174.424 155.583L174.716 155.523L168.108 125.886L167.811 98.5477C167.811 86.9627 159.929 78.4217 158.835 77.6334C158.651 76.9302 158.31 76.2744 157.837 75.7117C157.363 75.149 156.769 74.6931 156.095 74.3757C153.465 73.2217 150.253 74.6064 150.117 74.666L140.474 78.1634L140.429 78.2929C140.313 78.6243 127.611 118.96 127.611 118.96C127.611 118.96 128.38 154.203 128.648 155.357C128.648 155.357 146.453 157.968 153.502 157.968Z" fill="#333333"/>
<path d="M143.753 69.5595C136.555 69.5595 130.72 63.9148 130.72 56.9516C130.72 49.9885 136.555 44.3438 143.753 44.3438C150.951 44.3438 156.787 49.9885 156.787 56.9516C156.787 63.9148 150.951 69.5595 143.753 69.5595Z" fill="#9F616A"/>
<path opacity="0.2" d="M158.286 100.783L135.484 131.558L132.117 117.187L158.286 100.783Z" fill="black"/>
<path d="M86.7978 121.724C87.4391 122.215 88.1838 122.564 88.9795 122.746C89.7752 122.928 90.6025 122.939 91.4032 122.779C92.2038 122.618 92.9583 122.29 93.6136 121.816C94.2688 121.343 94.8088 120.737 95.1956 120.04L114.822 123.079L110.57 113.973L92.5844 112.483C91.3311 111.933 89.9124 111.845 88.5971 112.239C87.2819 112.632 86.1615 113.478 85.4482 114.617C84.7349 115.756 84.4784 117.109 84.7271 118.419C84.9759 119.729 85.7126 120.905 86.7978 121.724H86.7978Z" fill="#9F616A"/>
<path d="M109.559 113.454L102.507 112.785L100.553 122.301L109.427 122.453L109.559 113.454Z" fill="#F1F1F1"/>
<path d="M103.778 125.617L138.315 122.642L155.754 95.8128L155.808 95.5756C156.303 93.384 155.956 91.093 154.833 89.1304C153.71 87.1679 151.886 85.6678 149.703 84.9105C147.52 84.1531 145.127 84.1901 142.97 85.0146C140.814 85.8392 139.041 87.3948 137.983 89.3912L127.746 108.708L107.085 111.729L103.778 125.617Z" fill="#333333"/>
<path d="M154.856 67.899L144.038 68.2746C143.378 68.2975 141.589 61.4135 141.354 59.9854C141.169 59.0557 140.641 58.2229 139.867 57.6427C139.094 57.0625 138.128 56.7744 137.151 56.8324C136.342 56.9064 134.3 55.4429 132.193 53.71C128.192 50.42 128.4 44.241 132.795 41.461C132.915 41.385 133.033 41.3156 133.148 41.2528C135.921 39.7518 139.164 39.2478 142.34 39.2093C145.22 39.1745 148.181 39.5251 150.718 40.8437C155.267 43.2075 157.687 48.3732 157.9 53.3636C158.113 58.354 156.459 63.2337 154.582 67.8867" fill="#333333"/>
</svg>
