<svg width="80" height="58" viewBox="0 0 80 58" fill="none" xmlns="http://www.w3.org/2000/svg">
<path d="M40.7146 49.8438V52.4219C40.7146 53.1523 40.464 53.7642 39.9629 54.2575C39.46 54.7525 38.8376 55 38.0955 55H35.4765C34.7344 55 34.1128 54.7525 33.6117 54.2575C33.1089 53.7642 32.8574 53.1523 32.8574 52.4219V31.7969L38.3574 16.3281C38.6193 15.5547 39.089 14.9316 39.7665 14.459C40.4422 13.9863 41.1947 13.75 42.0241 13.75H70.8336C71.663 13.75 72.4164 13.9863 73.0939 14.459C73.7696 14.9316 74.2384 15.5547 74.5003 16.3281L80.0003 31.7969V52.4219C80.0003 53.1523 79.7489 53.7642 79.246 54.2575C78.7449 54.7525 78.1233 55 77.3812 55H74.7622C74.0201 55 73.3985 54.7525 72.8974 54.2575C72.3946 53.7642 72.1431 53.1523 72.1431 52.4219V49.8438H40.7146ZM40.1908 26.6406H72.6669L69.9169 18.9062H42.9408L40.1908 26.6406ZM44.6431 42.1094C45.7344 42.1094 46.6615 41.733 47.4246 40.9802C48.1893 40.2291 48.5717 39.3164 48.5717 38.2422C48.5717 37.168 48.1893 36.2553 47.4246 35.5042C46.6615 34.7514 45.7344 34.375 44.6431 34.375C43.5519 34.375 42.6247 34.7514 41.8617 35.5042C41.0969 36.2553 40.7146 37.168 40.7146 38.2422C40.7146 39.3164 41.0969 40.2291 41.8617 40.9802C42.6247 41.733 43.5519 42.1094 44.6431 42.1094ZM68.2146 42.1094C69.3058 42.1094 70.233 41.733 70.996 40.9802C71.7608 40.2291 72.1431 39.3164 72.1431 38.2422C72.1431 37.168 71.7608 36.2553 70.996 35.5042C70.233 34.7514 69.3058 34.375 68.2146 34.375C67.1233 34.375 66.1962 34.7514 65.4331 35.5042C64.6684 36.2553 64.286 37.168 64.286 38.2422C64.286 39.3164 64.6684 40.2291 65.4331 40.9802C66.1962 41.733 67.1233 42.1094 68.2146 42.1094Z" fill="white"/>
<path d="M13.6802 57.0357V17.9658C9.67156 16.9051 6.46727 14.6838 4.06736 11.3019C1.66568 7.92177 0.464844 4.15446 0.464844 0H5.751C5.751 3.6683 6.92981 6.79476 9.28743 9.37937C11.6433 11.9657 14.6494 13.2589 18.3056 13.2589H24.9133C26.2348 13.2589 27.4683 13.502 28.6136 13.9882C29.7589 14.4743 30.7941 15.1815 31.7192 16.1096L43.6791 28.1089L39.9788 31.8214L29.5387 21.3469V57.0357H24.2525V37.125H18.9664V57.0357H13.6802ZM21.6094 10.6071C20.1558 10.6071 18.9118 10.0874 17.8774 9.04789C16.8413 8.01016 16.3233 6.76205 16.3233 5.30357C16.3233 3.84509 16.8413 2.5961 17.8774 1.5566C18.9118 0.518866 20.1558 0 21.6094 0C23.0631 0 24.308 0.518866 25.3441 1.5566C26.3784 2.5961 26.8956 3.84509 26.8956 5.30357C26.8956 6.76205 26.3784 8.01016 25.3441 9.04789C24.308 10.0874 23.0631 10.6071 21.6094 10.6071Z" fill="#FFAF19"/>
</svg>
