<svg width="62" height="61" viewBox="0 0 62 61" fill="none" xmlns="http://www.w3.org/2000/svg">
<path d="M5.75758 61C4.17424 61 2.81833 60.4239 1.68985 59.2716C0.563282 58.1174 0 56.7306 0 55.1111V13.8889C0 12.2694 0.563282 10.8826 1.68985 9.72839C2.81833 8.57613 4.17424 8 5.75758 8H13.2424C14.8258 8 16.1817 8.57613 17.3101 9.72839C18.4367 10.8826 19 12.2694 19 13.8889V55.1111C19 56.7306 18.4367 58.1174 17.3101 59.2716C16.1817 60.4239 14.8258 61 13.2424 61H5.75758Z" fill="#FFAF19"/>
<path d="M14.8889 53C13.2694 53 11.8826 52.4239 10.7284 51.2716C9.57613 50.1174 9 48.7306 9 47.1111V5.88889C9 4.26944 9.57613 2.88261 10.7284 1.72839C11.8826 0.576129 13.2694 0 14.8889 0H56.1111C57.7306 0 59.1174 0.576129 60.2716 1.72839C61.4239 2.88261 62 4.26944 62 5.88889V47.1111C62 48.7306 61.4239 50.1174 60.2716 51.2716C59.1174 52.4239 57.7306 53 56.1111 53H14.8889ZM20.7778 41.2222H35.5V35.3333H20.7778V41.2222ZM23.7222 29.4444L35.5 23.5556L47.2778 29.4444V5.88889H23.7222V29.4444Z" fill="white"/>
</svg>
