<svg width="69" height="71" viewBox="0 0 69 71" fill="none" xmlns="http://www.w3.org/2000/svg">
<path d="M70.8843 31.5016L64.0273 57.971C63.7479 59.1119 63.2102 60.1243 62.4142 61.0081C61.6159 61.8928 60.6511 62.5494 59.5196 62.9781L25.5756 75.8376C23.7087 76.5449 21.8583 76.4864 20.0245 75.6622C18.1921 74.8348 16.9222 73.4877 16.2149 71.6208L3.35536 37.6768C2.64808 35.8099 2.707 33.9606 3.5321 32.129C4.35861 30.2944 5.70532 29.0234 7.57224 28.3161L41.5162 15.4565C42.6477 15.0279 43.8054 14.8804 44.9895 15.014C46.1713 15.1486 47.2448 15.5505 48.21 16.2199L70.8843 31.5016Z" fill="#FFAF19"/>
<path d="M75.1846 23.7608L68.3276 50.2302C68.0482 51.3712 67.5105 52.3835 66.7145 53.2673C65.9162 54.152 64.9514 54.8086 63.8199 55.2373L29.8759 68.0969C28.009 68.8041 26.1586 68.7456 24.3248 67.9214C22.4923 67.094 21.2225 65.7469 20.5152 63.88L7.65565 29.936C6.94838 28.0691 7.00729 26.2198 7.83239 24.3883C8.6589 22.5536 10.0056 21.2826 11.8725 20.5753L45.8165 7.71574C46.948 7.28709 48.1057 7.13959 49.2898 7.27325C50.4716 7.40777 51.5451 7.80974 52.5103 8.47915L75.1846 23.7608Z" fill="white"/>
<path d="M23.0166 52.5677L43.5726 22.4648H49.7652L29.2092 52.5677H23.0166ZM25.7688 38.7634C24.3067 38.7634 22.9879 38.4337 21.8125 37.7743C20.637 37.1149 19.7196 36.1688 19.0602 34.936C18.4008 33.6746 18.0711 32.1694 18.0711 30.4206C18.0711 28.6718 18.4008 27.181 19.0602 25.9482C19.7196 24.7154 20.637 23.7693 21.8125 23.1099C22.9879 22.4218 24.3067 22.0778 25.7688 22.0778C27.2597 22.0778 28.5784 22.4218 29.7252 23.1099C30.9007 23.7693 31.8181 24.7154 32.4775 25.9482C33.1656 27.181 33.5096 28.6718 33.5096 30.4206C33.5096 32.1408 33.1656 33.6316 32.4775 34.893C31.8181 36.1545 30.9007 37.1149 29.7252 37.7743C28.5784 38.4337 27.2597 38.7634 25.7688 38.7634ZM25.8118 34.678C26.5286 34.678 27.1163 34.3483 27.575 33.6889C28.0624 33.0295 28.3061 31.9401 28.3061 30.4206C28.3061 28.9011 28.0624 27.8117 27.575 27.1523C27.1163 26.4929 26.5286 26.1632 25.8118 26.1632C25.0951 26.1632 24.4787 26.4929 23.9627 27.1523C23.4753 27.8117 23.2316 28.9011 23.2316 30.4206C23.2316 31.9401 23.4753 33.0295 23.9627 33.6889C24.4787 34.3483 25.0951 34.678 25.8118 34.678ZM47.0129 52.9548C45.5221 52.9548 44.189 52.6251 43.0135 51.9657C41.8667 51.3063 40.9636 50.3602 40.3043 49.1274C39.6449 47.866 39.3152 46.3608 39.3152 44.612C39.3152 42.8631 39.6449 41.3723 40.3043 40.1395C40.9636 38.9068 41.8667 37.9607 43.0135 37.3013C44.189 36.6132 45.5221 36.2692 47.0129 36.2692C48.5037 36.2692 49.8225 36.6132 50.9693 37.3013C52.1447 37.9607 53.0622 38.9068 53.7216 40.1395C54.4096 41.3723 54.7537 42.8631 54.7537 44.612C54.7537 46.3608 54.4096 47.866 53.7216 49.1274C53.0622 50.3602 52.1447 51.3063 50.9693 51.9657C49.8225 52.6251 48.5037 52.9548 47.0129 52.9548ZM47.0129 48.8694C47.7296 48.8694 48.3317 48.5397 48.8191 47.8803C49.3065 47.2209 49.5501 46.1315 49.5501 44.612C49.5501 43.0925 49.3065 42.0031 48.8191 41.3437C48.3317 40.6843 47.7296 40.3546 47.0129 40.3546C46.3248 40.3546 45.7228 40.6843 45.2067 41.3437C44.7193 42.0031 44.4757 43.0925 44.4757 44.612C44.4757 46.1315 44.7193 47.2209 45.2067 47.8803C45.7228 48.5397 46.3248 48.8694 47.0129 48.8694Z" fill="#FFAF19"/>
<circle cx="60.9896" cy="29.5677" r="5.1605" fill="#3E3831"/>
</svg>
