<svg width="81" height="55" viewBox="0 0 81 55" fill="none" xmlns="http://www.w3.org/2000/svg">
<path d="M13.2969 16C12.8369 16 12.3957 16.1813 12.0705 16.5039C11.7452 16.8266 11.5625 17.2643 11.5625 17.7206V20.5882H9.57375C8.23695 20.588 6.94138 21.0473 5.90754 21.888C4.87371 22.7288 4.16551 23.899 3.9035 25.1994L3.44563 27.4706H1.73438C1.27439 27.4706 0.833245 27.6519 0.507987 27.9745C0.182728 28.2972 6.57834e-08 28.7348 6.57834e-08 29.1912C6.57834e-08 29.6475 0.182728 30.0851 0.507987 30.4078C0.833245 30.7305 1.27439 30.9118 1.73438 30.9118H2.75188L2.49519 32.1965C1.77511 32.4054 1.1427 32.8402 0.692825 33.4358C0.242949 34.0315 -0.000145998 34.7557 6.57834e-08 35.5V44.6765C6.57834e-08 45.5891 0.365457 46.4644 1.01597 47.1098C1.66649 47.7551 2.54878 48.1176 3.46875 48.1176H33.5313C34.4512 48.1176 35.3335 47.7551 35.984 47.1098C36.6345 46.4644 37 45.5891 37 44.6765V35.5C37.0001 34.7557 36.7571 34.0315 36.3072 33.4358C35.8573 32.8402 35.2249 32.4054 34.5048 32.1965L34.2458 30.9118H35.2656L35.5015 30.8957C35.9167 30.8392 36.2973 30.6354 36.5727 30.322C36.8482 30.0087 37 29.607 37 29.1912L36.9838 28.9572C36.9268 28.5453 36.7214 28.1678 36.4055 27.8945C36.0897 27.6212 35.6847 27.4706 35.2656 27.4706H33.5521L33.0965 25.1994C32.8345 23.899 32.1263 22.7288 31.0925 21.888C30.0586 21.0473 28.763 20.588 27.4263 20.5882H25.4375V17.7206C25.4375 17.2643 25.2548 16.8266 24.9295 16.5039C24.6043 16.1813 24.1631 16 23.7031 16H13.2969ZM9.57375 22.8824H27.4263C28.2283 22.8823 29.0055 23.1579 29.6257 23.6624C30.2459 24.1668 30.6707 24.8689 30.8279 25.6491L32.1229 32.0588H4.87938L6.17206 25.6491C6.32918 24.8693 6.75369 24.1675 7.37341 23.6631C7.99314 23.1587 8.76984 22.8828 9.57144 22.8824H9.57375ZM6.9375 40.0882C6.9375 39.4798 7.18114 38.8963 7.61482 38.466C8.04849 38.0358 8.63669 37.7941 9.25 37.7941C9.86331 37.7941 10.4515 38.0358 10.8852 38.466C11.3189 38.8963 11.5625 39.4798 11.5625 40.0882C11.5625 40.6967 11.3189 41.2802 10.8852 41.7104C10.4515 42.1407 9.86331 42.3824 9.25 42.3824C8.63669 42.3824 8.04849 42.1407 7.61482 41.7104C7.18114 41.2802 6.9375 40.6967 6.9375 40.0882ZM9.25 52.7059V50.4118H4.625V52.7059C4.625 53.3143 4.86864 53.8978 5.30232 54.3281C5.73599 54.7583 6.32419 55 6.9375 55C7.55081 55 8.13901 54.7583 8.57268 54.3281C9.00636 53.8978 9.25 53.3143 9.25 52.7059ZM32.375 50.4118V52.7059C32.375 53.3143 32.1314 53.8978 31.6977 54.3281C31.264 54.7583 30.6758 55 30.0625 55C29.4492 55 28.861 54.7583 28.4273 54.3281C27.9936 53.8978 27.75 53.3143 27.75 52.7059V50.4118H32.375Z" fill="#FFAF19"/>
<path d="M47.0469 0C46.388 0 45.7561 0.255645 45.2902 0.710697C44.8242 1.16575 44.5625 1.78293 44.5625 2.42647V6.47059H41.7137C39.7989 6.47022 37.9431 7.118 36.4622 8.30365C34.9813 9.48931 33.9668 11.1396 33.5915 12.9735L32.9356 16.1765H30.4844C29.8255 16.1765 29.1936 16.4321 28.7277 16.8872C28.2617 17.3422 28 17.9594 28 18.6029C28 19.2465 28.2617 19.8637 28.7277 20.3187C29.1936 20.7738 29.8255 21.0294 30.4844 21.0294H31.9419L31.5742 22.8412C30.5427 23.1358 29.6368 23.749 28.9924 24.589C28.348 25.429 27.9998 26.4504 28 27.5V40.4412C28 41.7283 28.5235 42.9626 29.4553 43.8727C30.3871 44.7828 31.651 45.2941 32.9688 45.2941H76.0312C77.349 45.2941 78.6129 44.7828 79.5447 43.8727C80.4765 42.9626 81 41.7283 81 40.4412V27.5C81.0002 26.4504 80.652 25.429 80.0076 24.589C79.3632 23.749 78.4573 23.1358 77.4258 22.8412L77.0548 21.0294H78.5156L78.8535 21.0068C79.4483 20.927 79.9934 20.6396 80.388 20.1977C80.7826 19.7558 81 19.1893 81 18.6029L80.9768 18.2729C80.8952 17.692 80.6009 17.1596 80.1485 16.7742C79.696 16.3888 79.116 16.1765 78.5156 16.1765H76.0611L75.4085 12.9735C75.0332 11.1396 74.0187 9.48931 72.5378 8.30365C71.0569 7.118 69.2011 6.47022 67.2862 6.47059H64.4375V2.42647C64.4375 1.78293 64.1758 1.16575 63.7098 0.710697C63.2439 0.255645 62.612 0 61.9531 0H47.0469ZM41.7137 9.70588H67.2862C68.4351 9.70581 69.5484 10.0945 70.4368 10.8059C71.3252 11.5173 71.9338 12.5074 72.1589 13.6076L74.0139 22.6471H34.9894L36.8411 13.6076C37.0661 12.5079 37.6742 11.5183 38.5619 10.807C39.4496 10.0956 40.5622 9.70656 41.7104 9.70588H41.7137ZM37.9375 33.9706C37.9375 33.1125 38.2865 32.2896 38.9077 31.6829C39.5289 31.0762 40.3715 30.7353 41.25 30.7353C42.1285 30.7353 42.9711 31.0762 43.5923 31.6829C44.2135 32.2896 44.5625 33.1125 44.5625 33.9706C44.5625 34.8286 44.2135 35.6516 43.5923 36.2583C42.9711 36.865 42.1285 37.2059 41.25 37.2059C40.3715 37.2059 39.5289 36.865 38.9077 36.2583C38.2865 35.6516 37.9375 34.8286 37.9375 33.9706ZM64.4375 33.9706C64.4375 33.1125 64.7865 32.2896 65.4077 31.6829C66.0289 31.0762 66.8715 30.7353 67.75 30.7353C68.6285 30.7353 69.4711 31.0762 70.0923 31.6829C70.7135 32.2896 71.0625 33.1125 71.0625 33.9706C71.0625 34.8286 70.7135 35.6516 70.0923 36.2583C69.4711 36.865 68.6285 37.2059 67.75 37.2059C66.8715 37.2059 66.0289 36.865 65.4077 36.2583C64.7865 35.6516 64.4375 34.8286 64.4375 33.9706ZM41.25 51.7647V48.5294H34.625V51.7647C34.625 52.6228 34.974 53.4457 35.5952 54.0524C36.2164 54.6591 37.059 55 37.9375 55C38.816 55 39.6586 54.6591 40.2798 54.0524C40.901 53.4457 41.25 52.6228 41.25 51.7647ZM74.375 48.5294V51.7647C74.375 52.6228 74.026 53.4457 73.4048 54.0524C72.7836 54.6591 71.941 55 71.0625 55C70.184 55 69.3414 54.6591 68.7202 54.0524C68.099 53.4457 67.75 52.6228 67.75 51.7647V48.5294H74.375Z" fill="white"/>
</svg>
