<svg width="175" height="145" viewBox="0 0 175 145" fill="none" xmlns="http://www.w3.org/2000/svg">
<path d="M14.1851 87.405C13.8669 87.114 13.6164 86.7566 13.4509 86.358C13.2855 85.9594 13.2093 85.5292 13.2276 85.0979C13.246 84.6666 13.3584 84.2445 13.5571 83.8615C13.7558 83.4785 14.0358 83.1437 14.3774 82.8809L11.0791 72.9212L16.3328 74.3361L18.6595 83.5771C19.0619 84.1817 19.2291 84.9133 19.1293 85.6333C19.0296 86.3532 18.6699 87.0115 18.1183 87.4833C17.5668 87.9552 16.8618 88.2078 16.1369 88.1934C15.4119 88.1789 14.7175 87.8984 14.1851 87.405V87.405Z" fill="#FFB6B6"/>
<path d="M23.7056 33.2921C24.5774 33.793 29.735 32.5517 30.7423 32.9049C30.1863 36.3058 33.2063 35.0295 29.9268 39.4958C26.6473 43.9621 20.0421 57.3532 18.5416 62.358C17.0411 67.3629 18.5262 74.416 18.3015 76.788C18.1929 78.1624 18.1997 79.5434 18.3218 80.9166C16.5499 80.8942 14.8035 81.2628 13.0039 81.0273C11.0848 75.5837 9.79447 67.8353 8.91829 63.5529C8.0421 59.2706 8.01005 61.0816 8.41191 58.9403C8.81377 56.799 8.91107 58.355 8.48893 56.3065C8.06678 54.258 9.77403 51.6842 11.3515 50.2166C12.0316 48.2556 12.9106 46.4271 13.5839 44.4865C18.5182 40.1715 18.8426 37.6789 23.7056 33.2921Z" fill="#FFAF19"/>
<path d="M144.927 79.8381L173.282 80.5487C178.668 83.481 178.749 89.8273 176.985 97.3623C176.985 97.3623 177.581 101.841 176.389 103.035C175.198 104.229 174.602 104.229 175.198 106.319C175.794 108.409 172.646 111.823 173.029 112.206C173.411 112.589 174.304 114.679 174.304 114.679L171.326 131.698C171.326 131.698 169.241 161.256 168.645 161.853C168.05 162.45 167.454 161.853 168.05 163.346C168.645 164.839 169.241 164.242 168.645 164.839C168.118 165.409 167.621 166.007 167.156 166.63H159.955C159.955 166.63 159.412 163.645 159.412 163.346C159.412 163.048 158.817 161.256 158.817 160.958C158.817 160.659 159.343 160.131 159.343 160.131C159.525 159.524 159.648 158.901 159.71 158.27C159.71 157.673 161.497 134.683 161.497 134.683L157.923 104.827L149.286 134.086C149.286 134.086 149.286 159.763 148.69 160.36C148.095 160.958 148.095 160.659 148.392 161.853C148.69 163.048 149.882 162.749 148.988 163.645C148.094 164.54 147.797 163.048 148.094 164.54L148.392 166.033L139.457 166.161C139.457 166.161 138.266 163.645 138.861 162.749C139.457 161.853 139.421 162.098 138.695 160.632C137.968 159.166 137.67 158.868 137.968 158.569C138.266 158.27 138.266 156.682 138.266 156.682L139.755 128.115C139.755 128.115 140.053 97.9594 140.053 97.0637C140.075 96.6028 139.991 96.143 139.805 95.7205V94.5047L140.946 90.1966L144.927 79.8381Z" fill="#333333"/>
<path d="M161.96 20.7326C166.826 20.7326 170.77 16.7785 170.77 11.9008C170.77 7.02309 166.826 3.06894 161.96 3.06894C157.094 3.06894 153.15 7.02309 153.15 11.9008C153.15 16.7785 157.094 20.7326 161.96 20.7326Z" fill="#FFB6B6"/>
<path d="M157.555 26.5699C155.657 27.701 154.521 29.7794 153.87 31.8943C152.663 35.8098 151.937 39.8581 151.707 43.9497L151.018 56.1993L142.492 82.282C149.881 88.5498 177.656 83.7065 177.656 83.7065C177.656 83.7065 178.509 83.4216 177.656 82.5669C176.804 81.7122 175.974 82.4694 176.826 81.6147C177.679 80.76 177.091 81.7122 176.807 80.8575C176.523 80.0028 176.807 80.5726 177.091 80.2877C177.375 80.0028 174.891 77.4387 174.891 77.4387L177.165 62.467L180.007 32.2678C176.596 27.9943 169.738 25.4751 169.738 25.4751L167.965 22.2773L159.104 22.9879L157.555 26.5699Z" fill="#767676"/>
<path d="M156.346 6.71759C156.687 6.72026 157.026 6.76489 157.356 6.85048C158.007 7.00728 158.668 7.11835 159.334 7.18289C161.373 7.37525 163.29 8.2472 164.777 9.65949C166.264 11.0718 167.237 12.9429 167.539 14.9741C168.05 14.5267 169.215 13.7036 170.17 14.4686C170.185 14.4807 170.193 14.487 170.227 14.471C170.861 14.1695 171.987 10.4577 172.021 7.18965C172.039 5.45507 171.766 3.24009 170.367 2.53866L170.293 2.5017L170.274 2.42137C170.18 2.03119 169.136 1.36515 167.32 0.846754C164.021 -0.0953145 159.2 -0.231508 156.43 2.46926C156.221 3.37975 155.442 3.62924 154.753 3.85009C153.99 4.09455 153.331 4.30551 153.228 5.24341C153.141 6.57812 153.147 7.91727 153.246 9.2511C153.505 8.43492 154.012 7.72054 154.697 7.20857C155.184 6.88 155.759 6.70867 156.346 6.71759Z" fill="#333333"/>
<path d="M139.948 55.5174L154.34 46.278L147.091 36.6187L139.934 45.4447L117.633 46.8158C117.046 46.2346 116.303 45.837 115.495 45.6715C114.687 45.506 113.849 45.5798 113.082 45.8839C112.315 46.188 111.653 46.7092 111.176 47.384C110.699 48.0588 110.429 48.858 110.398 49.6842C110.366 50.5104 110.575 51.3279 111 52.037C111.424 52.7461 112.045 53.3161 112.786 53.6776C113.528 54.0392 114.359 54.1765 115.177 54.073C115.995 53.9694 116.766 53.6294 117.395 53.0945L139.948 55.5174Z" fill="#FFB6B6"/>
<path d="M167.698 33.3818C168.533 38.4492 152.759 48.1256 152.759 48.1256C152.759 46.9363 143.345 55.9154 142.92 54.9289C141.712 52.1254 140.863 45.4851 139.175 44.4223C138.21 43.8144 144.988 38.1045 144.988 38.1045C144.988 38.1045 148.536 34.5216 153.191 30.0023C154.484 28.7001 156.084 27.747 157.843 27.2316C159.602 26.7162 161.463 26.6553 163.251 27.0545C163.251 27.0545 166.862 28.3144 167.698 33.3818Z" fill="#767676"/>
<path d="M150.881 91.5623V91.5644C150.887 96.8998 149.996 102.198 148.245 107.236L148.243 107.24C148.181 107.422 148.117 107.602 148.05 107.789C148.032 107.837 148.014 107.887 147.996 107.937C144.411 117.696 137.743 126.013 129.009 131.623L129.007 131.623C128.413 132.007 127.81 132.374 127.195 132.731L127.195 132.731C120.217 136.786 112.318 138.979 104.253 139.099C103.983 139.103 103.719 139.106 103.456 139.106C103.114 139.106 102.776 139.103 102.438 139.096L102.437 139.096C94.3613 138.935 86.4617 136.699 79.4944 132.601L79.4937 132.601C78.8805 132.241 78.2765 131.868 77.6819 131.48L77.6809 131.479C67.9827 125.177 60.9109 115.544 57.7924 104.387C54.6739 93.2292 55.7233 81.3146 60.7435 70.8777L60.7447 70.8751C60.8543 70.6452 60.968 70.4169 61.0873 70.1813L61.0883 70.1793C65.0421 62.3137 71.0968 55.7034 78.5775 51.0848C86.0582 46.4663 94.6712 44.0209 103.456 44.0209C112.242 44.0209 120.855 46.4663 128.335 51.0848C135.816 55.7034 141.871 62.3137 145.825 70.1793L145.826 70.1813C145.945 70.4169 146.059 70.6452 146.168 70.8751L146.17 70.8786C149.281 77.3269 150.892 84.3991 150.881 91.5623Z" fill="white" stroke="#E7EAEC" stroke-width="1.55998"/>
<path d="M91.8154 106.856H117.819L91.8154 61.7208L65.8123 106.856H91.8154Z" fill="#333333"/>
<path d="M115.435 106.856H141.439L115.435 61.7207L89.4323 106.856H115.435Z" fill="#333333"/>
<path d="M95.3493 86.5734L93.3906 82.1451L92.4964 86.5734L86.7623 106.856H82.0359L91.3467 69.882H91.8577L101.027 86.7863L103.581 98.1268L106.136 86.7863L115.135 69.882H115.603L125.169 106.856H120.486L114.496 86.5734L113.559 82.1451L111.856 86.5734L103.709 106.856H103.454L95.3493 86.5734Z" fill="white"/>
<path d="M103.566 80.1721H103.85L118.895 122.184H88.5212L103.566 80.1721Z" fill="white"/>
<path d="M103.097 83.0109L103.036 84.51H104.599L104.538 83.0109H103.097ZM102.982 87.4761L102.883 89.8746H104.752L104.653 87.4761H102.982ZM102.837 92.8407L102.684 96.4386H104.952L104.798 92.8407H102.837ZM102.622 101.097L102.438 105.594H105.197L105.013 101.097H102.622ZM102.369 109.16L102.147 111.398H105.488L105.266 109.16H102.369Z" fill="#333333"/>
<path d="M104.55 91.3971C104.487 91.2656 104.388 91.1549 104.267 91.0775C104.145 91.0002 104.005 90.9592 103.862 90.9592C103.72 90.9592 103.579 91.0002 103.458 91.0775C103.336 91.1549 103.238 91.2656 103.175 91.3971L99.3973 99.1689C99.3225 99.3155 99.2944 99.4825 99.3168 99.6465C99.3393 99.8104 99.4112 99.9629 99.5224 100.083C99.6336 100.202 99.7785 100.283 99.9367 100.313C100.095 100.344 100.258 100.322 100.404 100.252L103.862 98.7183L107.321 100.252C107.466 100.316 107.626 100.333 107.78 100.3C107.934 100.267 108.075 100.187 108.183 100.069C108.291 99.9511 108.362 99.802 108.385 99.6418C108.408 99.4815 108.383 99.3178 108.312 99.1729L104.55 91.3971Z" fill="#FFAF19"/>
<path d="M104.55 91.3971C104.487 91.2656 104.388 91.1549 104.267 91.0775C104.145 91.0002 104.005 90.9592 103.862 90.9592C103.72 90.9592 103.579 91.0002 103.458 91.0775C103.336 91.1549 103.238 91.2656 103.175 91.3971L99.3973 99.1689C99.3225 99.3155 99.2944 99.4825 99.3168 99.6465C99.3393 99.8104 99.4112 99.9629 99.5224 100.083C99.6336 100.202 99.7785 100.283 99.9367 100.313C100.095 100.344 100.258 100.322 100.404 100.252L103.862 98.7183L107.321 100.252C107.466 100.316 107.626 100.333 107.78 100.3C107.934 100.267 108.075 100.187 108.183 100.069C108.291 99.9511 108.362 99.802 108.385 99.6418C108.408 99.4815 108.383 99.3178 108.312 99.1729L104.55 91.3971ZM104.166 97.1331C104.07 97.0907 103.967 97.0688 103.862 97.0688C103.758 97.0688 103.655 97.0907 103.559 97.1331L101.711 97.9474L103.862 93.516L106.014 97.9474L104.166 97.1331Z" fill="#333333"/>
<path d="M103.425 80.1721H103.567L92.3544 111.397H85.9674L103.425 80.1721Z" fill="#333333"/>
<path d="M103.993 80.1721H103.851L115.064 111.397H121.451L103.993 80.1721Z" fill="#333333"/>
<path d="M174.868 66.8651L179.302 50.3198L167.455 48.0716L168.092 59.4282L152.525 75.4957C151.701 75.462 150.885 75.6693 150.177 76.0924C149.468 76.5156 148.898 77.1362 148.535 77.8788C148.172 78.6213 148.033 79.4536 148.134 80.2742C148.234 81.0948 148.571 81.8682 149.103 82.5001C149.635 83.1321 150.339 83.5953 151.129 83.8332C151.919 84.0711 152.76 84.0735 153.552 83.8401C154.343 83.6066 155.049 83.1475 155.585 82.5185C156.12 81.8896 156.461 81.1181 156.567 80.2981L174.868 66.8651Z" fill="#FFB6B6"/>
<path d="M180.515 31.769C184.536 34.9515 179.375 52.7529 179.375 52.7529C178.576 51.8737 177.647 64.867 176.67 64.4246C173.894 63.1672 168.806 58.8312 166.844 59.1846C165.722 59.3867 166.898 50.5902 166.898 50.5902C166.898 50.5902 167.114 45.5465 167.52 39.0626C167.601 37.2273 168.144 35.4425 169.098 33.8741C170.052 32.3057 171.387 31.0049 172.977 30.0926C172.977 30.0926 176.493 28.5865 180.515 31.769Z" fill="#767676"/>
<path d="M41.6168 68.9153L46.4908 90.7195L15.2578 88.772L23.751 67.358L41.6168 68.9153Z" fill="#FFB6B6"/>
<path d="M47.2889 108.953C44.8267 122.518 44.2111 128.375 44.2111 128.375C44.2111 128.375 46.0578 130.533 44.8267 131.767C43.5956 133.001 44.8267 135.466 44.8267 135.466L42.0584 165.371L39.83 165.009L34.4619 164.144L32.5258 163.83L33.7569 135.776C33.7569 135.776 32.5258 133.308 33.1413 132.691C33.7569 132.074 32.5258 128.375 32.5258 128.375L30.9886 99.0863L21.4525 131.15C21.4525 131.15 22.3776 132.384 21.4525 133.308C20.5309 134.232 18.6877 138.858 18.6877 138.858L13.0169 158.749L12.5355 160.438L9.57803 159.883L6.35924 159.277L5.76773 159.166L4.71543 158.966L4.03798 158.839L3.80755 158.797L2.69336 158.587L3.03039 157.087L3.20575 156.298L8.00302 134.938L8.11307 134.445L8.23 133.925C8.23 133.925 7.61443 132.384 8.53605 131.457C8.80568 131.174 9.00261 130.83 9.10986 130.454C9.21711 130.078 9.23145 129.681 9.15163 129.299C9.12145 129.266 9.09385 129.232 9.06909 129.195C8.96024 129.045 8.88514 128.874 8.84899 128.692C8.76646 128.306 8.83867 127.765 9.46113 127.141C9.63641 126.954 9.78354 126.743 9.89787 126.513C10.8332 124.738 11.3044 120.977 11.3044 120.977C11.3044 120.977 12.1366 91.1885 14.8602 86.638C15.0046 86.4001 17.896 81.8336 18.0473 81.7405C21.1216 79.8928 45.0738 82.445 45.0738 82.445C45.0738 82.445 46.5246 86.3519 46.5899 86.7586C46.9441 89.0442 49.3763 97.4453 47.2889 108.953Z" fill="#333333"/>
<path d="M40.0111 37.2005C40.0111 37.2005 40.5294 34.5036 35.5492 29.5112C32.9127 28.6302 28.3445 29.1437 26.7607 29.5112C19.437 39.2023 20.7483 37.4924 18.8419 42.9071C18.3475 44.3112 18.1003 45.6602 18.3201 46.7615C19.1989 51.1665 20.6257 73.7786 20.3328 74.9532C20.0398 76.1279 17.9892 77.5963 20.0398 77.5963C22.0904 77.5963 48.5354 77.1322 47.9495 76.2512C47.3636 75.3702 40.0111 37.2005 40.0111 37.2005Z" fill="#FFAF19"/>
<path d="M71.4183 73.0322C71.0167 73.1881 70.5859 73.2538 70.1562 73.2248C69.7265 73.1957 69.3084 73.0725 68.9314 72.8639C68.5543 72.6554 68.2274 72.3664 67.9738 72.0175C67.7202 71.6686 67.5459 71.2682 67.4634 70.8445L57.0989 69.3687L60.7026 65.2836L69.9925 67.3113C70.7117 67.2195 71.4396 67.3953 72.0382 67.8055C72.6368 68.2157 73.0645 68.8317 73.2403 69.5369C73.416 70.2421 73.3276 70.9874 72.9918 71.6316C72.656 72.2758 72.0962 72.7742 71.4183 73.0322L71.4183 73.0322Z" fill="#FFB6B6"/>
<path d="M27.5684 35.4646C28.4041 34.9053 29.3532 34.6427 30.1173 33.8959C32.9071 35.9097 33.1124 32.6308 35.6407 37.5635C38.169 42.4962 47.187 54.389 50.9887 57.965C54.7904 61.541 61.7513 63.3496 63.7697 64.6078C64.9488 65.3174 66.1853 65.9264 67.4662 66.4285C66.6569 68.0088 66.2082 69.7404 65.1964 71.2507C59.4797 70.5485 51.9846 68.2554 47.7696 67.1344C43.5546 66.0134 45.1578 66.8488 43.4243 65.5343C41.6908 64.2199 43.1239 64.8256 41.1063 64.2921C39.0887 63.7586 37.5503 61.0799 36.9422 59.0104C35.4937 57.5265 34.2521 55.9232 32.8188 54.4545C31.1627 48.1039 29.3204 41.7832 27.5684 35.4646Z" fill="#FFAF19"/>
<path d="M34.1129 25.7526C38.7978 25.7526 42.5957 21.9454 42.5957 17.2489C42.5957 12.5525 38.7978 8.7453 34.1129 8.7453C29.4279 8.7453 25.63 12.5525 25.63 17.2489C25.63 21.9454 29.4279 25.7526 34.1129 25.7526Z" fill="#FFB6B6"/>
<path d="M39.7801 32.7931C39.378 32.2175 36.3718 26.51 35.4783 24.3516C35.3864 24.819 35.3284 25.2925 35.3047 25.7683L35.2958 25.9456L35.1202 25.9684C34.856 26.0022 28.617 26.7613 25.3701 23.0706C23.4464 20.8844 23.0101 17.6052 24.0717 13.3223C23.8786 13.2843 23.6936 13.2129 23.525 13.1112C23.2442 12.9164 23.0092 12.6625 22.8364 12.3673C22.6636 12.0721 22.557 11.7427 22.5243 11.4019L22.3445 11.4503C16.568 8.63252 21.5446 0.389642 26.8207 4.48783C27.2835 4.38417 27.766 4.41196 28.2139 4.56808C28.6458 4.74426 29.0222 5.03431 29.3031 5.40751C29.584 5.7807 29.7589 6.22312 29.8093 6.68788C32.5354 5.25048 36.1433 5.48438 38.0093 6.56285C38.7906 7.01447 39.2392 7.58325 39.3188 8.21776C41.5228 8.34114 43.8933 10.4933 43.8933 13.5425V13.7548H43.6815C42.7948 13.7738 41.93 14.0341 41.1795 14.5079C40.4291 14.9818 39.8214 15.6513 39.4215 16.4449C38.8794 17.4265 38.6112 18.5363 38.6449 19.6578C38.6786 20.7792 39.013 21.8709 39.613 22.818C40.266 23.8226 40.7119 24.948 40.9243 26.128C41.1367 27.308 41.1115 28.5187 40.85 29.6888L40.054 33.185L39.7801 32.7931Z" fill="#333333"/>
<path d="M78.0819 39.9862C80.155 39.9862 81.8357 38.3015 81.8357 36.2232C81.8357 34.145 80.155 32.4603 78.0819 32.4603C76.0087 32.4603 74.3281 34.145 74.3281 36.2232C74.3281 38.3015 76.0087 39.9862 78.0819 39.9862Z" fill="#E6E6E6"/>
<path d="M102.878 39.371C108.97 39.371 113.909 34.4322 113.909 28.34C113.909 22.2478 108.97 17.3091 102.878 17.3091C96.7854 17.3091 91.8467 22.2478 91.8467 28.34C91.8467 34.4322 96.7854 39.371 102.878 39.371Z" fill="#FFAF19"/>
<path d="M107.74 31.057C107.74 31.9937 107.366 32.8921 106.7 33.5545C106.034 34.2169 105.131 34.5891 104.19 34.5891H103.37V35.4041C103.37 35.6203 103.284 35.8276 103.131 35.9805C102.977 36.1334 102.768 36.2192 102.551 36.2192C102.334 36.2192 102.126 36.1334 101.972 35.9805C101.818 35.8276 101.732 35.6203 101.732 35.4041V34.5891H100.913C99.9711 34.5891 99.068 34.2169 98.4023 33.5545C97.7365 32.8921 97.3624 31.9937 97.3624 31.057C97.3624 30.8408 97.4487 30.6335 97.6024 30.4806C97.756 30.3278 97.9644 30.2419 98.1817 30.2419C98.399 30.2419 98.6074 30.3278 98.761 30.4806C98.9147 30.6335 99.001 30.8408 99.001 31.057C99.0028 31.5608 99.2048 32.0436 99.5629 32.3998C99.921 32.7561 100.406 32.9571 100.913 32.9589H104.19C104.697 32.9589 105.183 32.7585 105.541 32.4018C105.9 32.0451 106.101 31.5614 106.101 31.057C106.101 30.5526 105.9 30.0688 105.541 29.7122C105.183 29.3555 104.697 29.1551 104.19 29.1551H101.186C100.244 29.1551 99.3411 28.783 98.6753 28.1206C98.0096 27.4582 97.6355 26.5598 97.6355 25.623C97.6355 24.6863 98.0096 23.7879 98.6753 23.1255C99.3411 22.4631 100.244 22.091 101.186 22.091H101.732V21.2759C101.732 21.0597 101.818 20.8524 101.972 20.6995C102.126 20.5467 102.334 20.4608 102.551 20.4608C102.768 20.4608 102.977 20.5467 103.131 20.6995C103.284 20.8524 103.37 21.0597 103.37 21.2759V22.091H103.644C104.585 22.091 105.488 22.4631 106.154 23.1255C106.82 23.7879 107.194 24.6863 107.194 25.623C107.194 25.8392 107.107 26.0465 106.954 26.1994C106.8 26.3523 106.592 26.4381 106.374 26.4381C106.157 26.4381 105.949 26.3523 105.795 26.1994C105.642 26.0465 105.555 25.8392 105.555 25.623C105.553 25.1192 105.351 24.6365 104.993 24.2802C104.635 23.9239 104.15 23.7229 103.644 23.7212H101.186C100.679 23.7212 100.192 23.9215 99.834 24.2782C99.4755 24.6349 99.2741 25.1186 99.2741 25.623C99.2741 26.1274 99.4755 26.6112 99.834 26.9679C100.192 27.3245 100.679 27.5249 101.186 27.5249H104.19C105.131 27.5249 106.034 27.897 106.7 28.5594C107.366 29.2218 107.74 30.1202 107.74 31.057Z" fill="#333333"/>
<path d="M128.412 39.2755C130.485 39.2755 132.166 37.5908 132.166 35.5125C132.166 33.4343 130.485 31.7496 128.412 31.7496C126.339 31.7496 124.658 33.4343 124.658 35.5125C124.658 37.5908 126.339 39.2755 128.412 39.2755Z" fill="#E6E6E6"/>
</svg>
