<svg width="69" height="117" viewBox="0 0 69 117" fill="none" xmlns="http://www.w3.org/2000/svg">
<path d="M59.5433 57.7338C58.2125 63.0336 53.4163 66.75 47.9218 66.75C42.4272 66.75 37.631 63.0336 36.3002 57.7338L35.1407 53.1668C34.5872 50.9291 32.2945 49.5682 30.0282 50.1309C27.7619 50.6936 26.4047 52.9574 26.9713 55.2082L28.1176 59.7752C29.567 65.533 33.4145 70.1916 38.4348 72.8088V112.813C38.4348 115.129 40.319 117 42.6512 117C44.9834 117 46.8676 115.129 46.8676 112.813V96.0625H48.9759V112.813C48.9759 115.129 50.8601 117 53.1923 117C55.5245 117 57.4088 115.129 57.4088 112.813V72.8088C62.429 70.1916 66.2765 65.533 67.7259 59.7752L68.8722 55.2082C69.4388 52.9705 68.0685 50.6936 65.8021 50.1309C63.5358 49.5682 61.2563 50.9291 60.7029 53.1668L59.5565 57.7338H59.5433ZM47.9218 62.5625C51.4135 62.5625 54.2464 59.749 54.2464 56.2813C54.2464 52.8135 51.4135 50 47.9218 50C44.43 50 41.5971 52.8135 41.5971 56.2813C41.5971 59.749 44.43 62.5625 47.9218 62.5625ZM9.48701 62.5625C12.9788 62.5625 15.8117 59.749 15.8117 56.2813C15.8117 52.8135 12.9788 50 9.48701 50C5.99526 50 3.16234 52.8135 3.16234 56.2813C3.16234 59.749 5.99526 62.5625 9.48701 62.5625ZM8.4329 66.75C3.78163 66.75 0 70.5057 0 75.125V112.813C0 115.129 1.88423 117 4.21645 117C6.54867 117 8.4329 115.129 8.4329 112.813V96.0625H10.5411V112.813C10.5411 115.129 12.4253 117 14.7576 117C17.0898 117 18.974 115.129 18.974 112.813V83.0682L20.6869 85.7508C21.4644 86.9547 22.8084 87.7006 24.2446 87.7006H30.5692C32.9015 87.7006 34.7857 85.8293 34.7857 83.5131C34.7857 81.1969 32.9015 79.3256 30.5692 79.3256H26.5636L21.6356 71.618C19.7119 68.582 16.3519 66.75 12.7416 66.75H8.4329Z" fill="white"/>
<path fill-rule="evenodd" clip-rule="evenodd" d="M33.284 0.312696C34.2486 -0.0513564 35.3026 -0.0988171 36.2956 0.177084L36.716 0.312696L53.8271 6.78511C54.6947 7.11327 55.452 7.68337 56.0107 8.42899C56.5694 9.1746 56.9066 10.065 56.9829 10.9965L57 11.4033V24.6268C56.9999 28.6222 55.9304 32.5435 53.9044 35.9768C51.8783 39.41 48.971 42.2279 45.4891 44.1328L44.8389 44.4755L36.6402 48.6105C36.1888 48.8378 35.6957 48.9688 35.1918 48.9951C34.6879 49.0214 34.1841 48.9425 33.7118 48.7633L33.3598 48.6105L25.1611 44.4755C21.6182 42.6886 18.6192 39.97 16.4809 36.6066C14.3426 33.2432 13.1442 29.3598 13.0122 25.3665L13 24.6268V11.4033C13 10.4692 13.2631 9.5542 13.7586 8.76498C14.2541 7.97576 14.9617 7.34474 15.7989 6.94538L16.1729 6.78511L33.284 0.312696V0.312696ZM43.3918 16.1769L32.1522 27.5141L27.8304 23.1548C27.3718 22.6924 26.7498 22.4328 26.1014 22.4331C25.4529 22.4333 24.8311 22.6933 24.3728 23.156C23.9144 23.6187 23.6571 24.246 23.6573 24.9001C23.6575 25.5542 23.9153 26.1814 24.374 26.6437L30.2504 32.5712C30.5001 32.8232 30.7966 33.0231 31.1229 33.1595C31.4493 33.2959 31.799 33.3661 32.1522 33.3661C32.5054 33.3661 32.8552 33.2959 33.1815 33.1595C33.5078 33.0231 33.8043 32.8232 34.054 32.5712L46.8482 19.6634C47.0817 19.4359 47.2679 19.1638 47.396 18.863C47.5241 18.5622 47.5916 18.2386 47.5944 17.9113C47.5972 17.5839 47.5354 17.2592 47.4125 16.9562C47.2895 16.6531 47.108 16.3778 46.8785 16.1463C46.649 15.9148 46.3761 15.7317 46.0757 15.6078C45.7753 15.4838 45.4534 15.4214 45.1288 15.4242C44.8042 15.4271 44.4835 15.4951 44.1852 15.6243C43.887 15.7536 43.6173 15.9414 43.3918 16.1769V16.1769Z" fill="#FFAF19"/>
</svg>
