<svg width="428" height="266" viewBox="0 0 428 266" fill="none" xmlns="http://www.w3.org/2000/svg">
<path fill-rule="evenodd" clip-rule="evenodd" d="M206.505 27.1265C305.941 -6.60451 403.358 15.5988 424.09 76.7181C444.823 137.838 381.022 214.73 281.587 248.46C182.15 282.191 84.7334 259.988 63.9998 198.869C43.2671 137.75 107.068 60.8568 206.505 27.1265Z" fill="#414042"/>
<path fill-rule="evenodd" clip-rule="evenodd" d="M401.326 55.3302C413.476 51.2081 425.234 53.4898 427.587 60.4266C429.939 67.3633 421.998 76.328 409.847 80.4494C397.696 84.5715 385.939 82.2898 383.586 75.3531C381.233 68.4163 389.176 59.4516 401.326 55.3302Z" fill="#5988CE"/>
<path fill-rule="evenodd" clip-rule="evenodd" d="M383.515 40.184C389.691 42.3028 393.484 47.5613 391.985 51.9298C390.488 56.2975 384.266 58.1216 378.089 56.0021C371.912 53.8841 368.119 48.6255 369.618 44.257C371.116 39.8893 377.338 38.0653 383.515 40.184Z" fill="#39383A"/>
<path fill-rule="evenodd" clip-rule="evenodd" d="M402.858 40.0836C406.172 38.9591 409.526 40.0189 410.351 42.4494C411.176 44.8807 409.158 47.763 405.844 48.8868C402.529 50.0113 399.175 48.9515 398.35 46.5202C397.525 44.0896 399.544 41.2073 402.858 40.0836Z" fill="#5988CE"/>
<path fill-rule="evenodd" clip-rule="evenodd" d="M46.8903 128.388C42.0656 137.629 33.8787 142.888 28.6022 140.135C23.3266 137.38 22.9604 127.657 27.7851 118.415C32.609 109.174 40.7968 103.915 46.0717 106.669C51.3481 109.423 51.7135 119.147 46.8903 128.388Z" fill="#E1E2DF"/>
<path fill-rule="evenodd" clip-rule="evenodd" d="M26.8487 91.5017C31.7299 93.4181 34.5884 97.7702 33.2332 101.223C31.878 104.675 26.8219 105.919 21.9406 104.003C17.0587 102.087 14.2002 97.7344 15.5554 94.2821C16.9113 90.8297 21.9667 89.5847 26.8487 91.5017Z" fill="#E1E2DF"/>
<path fill-rule="evenodd" clip-rule="evenodd" d="M37.7774 81.4863C39.0953 78.7365 41.799 77.2913 43.8158 78.2587C45.8334 79.2247 46.3997 82.238 45.0817 84.9878C43.7637 87.7369 41.06 89.1822 39.0432 88.2154C37.0265 87.2487 36.4594 84.2354 37.7774 81.4863Z" fill="#E1E2DF"/>
<path fill-rule="evenodd" clip-rule="evenodd" d="M165.732 18.3112C250.072 46.687 334.911 -14.9673 361.424 83.9821C376.913 141.787 259.526 161.746 190.779 170.62C122.032 179.493 61.0655 148.613 54.6058 101.646C48.1468 54.6805 81.3912 -10.0645 165.732 18.3112Z" fill="#E1E2DF"/>
<path fill-rule="evenodd" clip-rule="evenodd" d="M159.661 121.678L162.959 155.669L180.59 161.349L181.705 122.573L159.661 121.678ZM296.701 106.957L331.524 114.205L331.669 100.794L298.277 90.516L296.701 106.957ZM237.891 63.101L232.918 102.763L233.411 130.346L233.276 131.522L252.839 134.711L260.095 67.7062L237.891 63.101ZM240.78 40.0597L238.647 57.0789L260.75 61.6632L262.726 43.4168L240.78 40.0597ZM195.547 36.2926L187.986 81.7902L187.778 89.0603L228.228 98.9077L235.677 39.4822L195.547 36.2926ZM151.953 26.4348L156.774 91.9032H156.773L159.07 115.581L181.879 116.507L182.9 81.0021L190.465 35.4762L151.953 26.4348ZM109.031 67.2902L101.496 86.7965L152.284 98.732L151.68 92.5097L151.67 92.4264L150.606 77.9739L109.031 67.2902ZM96.3443 85.5857L103.92 65.9766L73.6766 58.2049L68.5535 79.0545L96.3443 85.5857ZM155.631 133.236L126.237 133.19L121.969 153.686L157.735 154.929L155.631 133.236ZM93.5186 125.782L124.326 127.12L155.043 127.167L152.899 105.079L99.298 92.4822L90.355 115.631L95.1625 120.37L93.5186 125.782ZM81.3724 26.8843L75.1151 52.3488L150.138 71.6274L145.829 13.1262C147.545 13.4358 149.284 13.7849 151.05 14.18L151.488 20.124L191.457 29.5062L192.279 24.5565C193.983 24.805 195.685 25.035 197.384 25.2337L196.546 30.2779L236.434 33.4489L237.316 26.4088C239.057 26.3507 240.791 26.2845 242.516 26.2116L241.532 34.0562L263.377 37.3992L264.706 25.1288C266.443 25.0484 268.165 24.9792 269.876 24.9152L261.046 106.45L282.75 109.267L290.506 24.8355C292.231 24.9092 293.936 25.0082 295.621 25.1392L288.266 105.201L291.653 105.906L293.86 82.8857L331.736 94.5444L332.362 36.553C334.1 37.7475 335.788 39.058 337.425 40.4876L337.018 78.0908L358.795 75.2442C359.428 77.1256 360.028 79.1007 360.611 81.1204L336.952 84.2134L336.437 132.029C334.784 133.058 333.07 134.063 331.299 135.042L331.457 120.371L287.71 111.264L287.171 117.133L279.556 145.014L283.817 153.264C282.072 153.747 280.317 154.22 278.552 154.683L273.965 145.801L282.146 115.843L282.194 115.308L260.393 112.479L257.245 141.559L232.582 137.539L229.419 164.959C227.657 165.255 225.905 165.541 224.163 165.822L228.298 129.961L227.853 105.013L187.601 95.2142L185.654 162.979L192.894 165.312L209.648 168.042C203.074 168.995 196.74 169.85 190.779 170.62C190.543 170.65 190.308 170.676 190.072 170.705L163.59 162.174L164.554 172.113C162.823 172.085 161.099 172.038 159.388 171.961L158.326 161.021L120.714 159.714L119.572 165.196C117.907 164.681 116.265 164.137 114.645 163.569L115.485 159.532L103.591 159.119C99.2966 157.152 95.2183 154.98 91.3738 152.623L116.741 153.505L120.999 133.05L91.6975 131.777L86.3578 149.352C84.8352 148.292 83.3609 147.195 81.9291 146.071L89.1397 122.336L84.0746 117.345L94.1482 91.2721L67.1127 84.9189L59.0961 117.546C57.8288 114.636 56.7869 111.64 55.9839 108.564L74.4186 33.536C76.5619 31.1724 78.8793 28.9473 81.3724 26.8843Z" fill="white"/>
<path fill-rule="evenodd" clip-rule="evenodd" d="M88.5984 233.844C43.3858 235.132 14.4058 237.117 14.4058 239.343C14.4058 241.836 50.7207 244.026 105.48 245.274C99.3157 241.892 93.6642 238.076 88.5984 233.844Z" fill="#E1E2DF"/>
<path fill-rule="evenodd" clip-rule="evenodd" d="M211.233 232.313C164.855 232.313 122.232 232.886 88.5923 233.845C93.6588 238.076 99.3096 241.892 105.473 245.274C136.02 245.972 172.306 246.375 211.233 246.375C238.887 246.375 265.203 246.17 289.082 245.803C299.147 242.102 308.822 237.96 318.05 233.437C287.284 232.726 250.611 232.313 211.233 232.313Z" fill="#39383A"/>
<path fill-rule="evenodd" clip-rule="evenodd" d="M115.607 138.034C97.5937 143.947 67.0686 147.11 44.9308 153.846C22.7929 160.584 14.4058 173.098 14.4058 176.672C14.4058 180.247 14.4058 192.76 14.4058 198.535C14.4058 204.31 21.7592 210.018 32.8308 216.41C43.9023 222.803 53.731 221.498 59.3683 221.498H61.7885C60.4073 217.668 59.6519 213.538 59.6519 209.232C59.6519 189.271 75.8346 173.089 95.7964 173.089C115.758 173.089 131.94 189.271 131.94 209.232C131.94 213.538 131.186 217.668 129.804 221.498H321C319.618 217.668 318.864 213.538 318.864 209.232C318.864 189.271 335.046 173.089 355.007 173.089C366.933 173.089 377.508 178.867 384.091 187.773C390.849 181.186 396.92 174.372 402.237 167.411C402.016 165.787 401.886 164.236 401.886 162.784C401.886 148.897 375.073 121.259 370.81 116.859C366.548 112.459 361.186 107.234 361.736 105.171C362.285 103.109 368.171 104.201 368.61 102.558C369.05 100.916 355.548 98.1584 340.56 95.6839C325.572 93.2087 279.921 88.5336 249.533 90.1835C219.146 91.8334 202.096 96.0962 177.896 107.372C153.695 118.646 139.257 128.409 115.607 138.034Z" fill="#FBBF15"/>
<path fill-rule="evenodd" clip-rule="evenodd" d="M225.507 193.365C187.076 193.365 155.92 194.235 155.92 195.308C155.92 196.381 187.076 197.251 225.507 197.251C263.939 197.251 295.095 196.381 295.095 195.308C295.095 194.235 263.939 193.365 225.507 193.365Z" fill="#F9A71A"/>
<path fill-rule="evenodd" clip-rule="evenodd" d="M401.891 163.241C401.888 163.087 401.885 162.935 401.885 162.785C401.885 162.578 401.877 162.369 401.866 162.156C397.703 163.062 392.337 164.483 386.804 167.768C385.421 168.589 383.98 169.625 382.438 170.734C379.35 172.956 375.849 175.473 371.559 177.096C371.976 177.311 372.387 177.535 372.794 177.765C376.797 176.103 380.111 173.719 383.06 171.598C384.571 170.51 385.985 169.494 387.347 168.685C392.656 165.534 397.832 164.134 401.891 163.241Z" fill="#F58018"/>
<path fill-rule="evenodd" clip-rule="evenodd" d="M400.597 156.658C398.246 150.272 392.987 142.616 387.493 135.692C381.552 134.863 379.004 134.747 378.498 136.375C377.832 138.525 389.056 153.966 395.016 155.855C396.786 156.416 398.734 156.632 400.597 156.658Z" fill="#F03C4F"/>
<path fill-rule="evenodd" clip-rule="evenodd" d="M47.6489 153.05C46.7298 153.311 45.8219 153.575 44.9296 153.847C28.9739 158.703 20.1617 166.56 16.4839 171.907C25.4575 175.676 47.1816 169.921 52.548 168.58C58.9467 166.98 57.4702 157.998 55.6246 155.723C53.604 153.761 50.8259 152.998 47.6489 153.05Z" fill="white"/>
<path fill-rule="evenodd" clip-rule="evenodd" d="M366.013 141.15C361.304 146.3 300.745 146.101 284.331 146.104C249.998 146.11 172.649 152.388 172.649 151.336C172.649 149.403 183.896 148.883 209.762 146.251C222.912 144.914 239.842 143.53 260.995 142.401C323.751 139.046 372.866 133.654 366.013 141.15Z" fill="#F9DC44"/>
<path fill-rule="evenodd" clip-rule="evenodd" d="M42.4605 156.833C39.4361 156.833 34.4715 160.056 31.3704 164.032C28.2693 168.007 28.2076 171.229 31.2313 171.229C34.2557 171.229 39.221 168.007 42.3221 164.032C45.4225 160.056 45.485 156.833 42.4605 156.833Z" fill="#EDEEED"/>
<path fill-rule="evenodd" clip-rule="evenodd" d="M355.007 175.878C336.586 175.878 321.652 190.811 321.652 209.233C321.652 216.391 323.908 223.023 327.747 228.456C348.645 217.226 366.985 204.04 382.065 189.728C376.008 181.339 366.146 175.878 355.007 175.878Z" fill="#040606"/>
<path fill-rule="evenodd" clip-rule="evenodd" d="M95.7964 175.878C77.3751 175.878 62.4419 190.811 62.4419 209.232C62.4419 227.654 77.3751 242.588 95.7964 242.588C114.218 242.588 129.151 227.654 129.151 209.232C129.151 190.811 114.218 175.878 95.7964 175.878Z" fill="#040606"/>
<path fill-rule="evenodd" clip-rule="evenodd" d="M334.9 105.036C339.518 108.847 345.985 126.861 347.14 133.443C347.14 133.443 272.196 137.138 260.995 138.525L262.727 97.1836C262.727 97.1836 329.357 100.648 334.9 105.036Z" fill="white"/>
<path fill-rule="evenodd" clip-rule="evenodd" d="M261.228 132.948L261.318 130.807C262.207 130.741 263.058 130.56 263.83 130.246C265.115 129.724 266.191 128.817 266.86 127.432C267.733 125.62 267.948 122.982 267.11 119.306C265.538 112.407 269.04 109.332 274.468 108.095C279.297 106.995 285.649 107.459 291.059 107.854C295.619 108.187 299.476 108.468 300.698 107.766C302.963 106.464 302.229 104.107 300.862 101.728C300.482 101.066 300.039 100.379 299.584 99.7019C300.481 99.7778 301.377 99.8552 302.27 99.9341C302.419 100.176 302.565 100.42 302.707 100.668C304.638 104.029 305.553 107.43 301.758 109.611C299.961 110.643 295.814 110.34 290.909 109.982C285.638 109.598 279.448 109.145 274.936 110.173C270.707 111.137 267.976 113.516 269.188 118.838C270.143 123.029 269.851 126.136 268.779 128.358C267.858 130.265 266.386 131.511 264.632 132.224C263.576 132.654 262.421 132.885 261.228 132.948ZM334.899 105.036C337.784 107.416 341.39 115.338 343.973 122.554C338.065 124.756 330.153 124.864 326.125 127.62C323.562 129.375 323.971 131.926 325.639 134.539C309.559 135.378 288.016 136.546 273.974 137.483C282.151 130.328 276.884 122.118 282.71 117.854C290.813 111.921 310.088 117.854 315.605 111.528C317.531 109.319 318.136 105.539 318.109 101.554C326.713 102.599 333.313 103.78 334.899 105.036Z" fill="#EDEEED"/>
<path fill-rule="evenodd" clip-rule="evenodd" d="M250.601 97.1837L242.864 140.141C242.864 140.141 153.486 148.571 152.446 147.531C151.407 146.492 158.778 126.06 159.356 124.63C159.933 123.2 193.094 101.688 250.601 97.1837Z" fill="white"/>
<path fill-rule="evenodd" clip-rule="evenodd" d="M157.17 130.706C157.626 129.397 158.048 128.208 158.399 127.231C161.042 126.012 163.689 126.211 165.9 126.379C167.692 126.514 169.107 126.621 169.566 125.699C170.034 124.763 169.132 123.237 168.15 121.573C167.782 120.949 167.404 120.311 167.066 119.659C167.664 119.336 168.295 119.002 168.961 118.658C169.272 119.279 169.634 119.892 169.986 120.488C171.277 122.674 172.461 124.679 171.477 126.65C170.377 128.857 168.332 128.702 165.742 128.506C163.252 128.319 160.116 128.082 157.17 130.706ZM250.602 97.1837L248.556 108.545C239.475 109.421 230.23 109.756 228.769 113.572C225.091 123.175 240.63 122.842 237.146 135.843C236.519 138.183 235.276 139.832 233.654 141.001C210.807 143.119 153.28 148.364 152.447 147.531C152.185 147.27 152.459 145.772 153.023 143.658C171.461 137.021 194.035 138.781 194.035 133.444C194.035 126.28 178.303 127.62 180.345 119.519C182.336 111.624 214.585 110.751 216.235 102.24C226.451 99.9938 237.935 98.1757 250.602 97.1837Z" fill="#EDEEED"/>
<path fill-rule="evenodd" clip-rule="evenodd" d="M155.467 127.62C155.467 127.62 126.512 145.489 125.244 147.621C123.977 149.752 150.105 147.621 150.105 147.621C150.105 147.621 151.372 138.54 155.467 127.62Z" fill="white"/>
<path fill-rule="evenodd" clip-rule="evenodd" d="M175.5 138.094C175.194 143.602 170.79 145.009 167.731 144.642C164.674 144.275 157.088 141.64 157.088 138.094C157.088 134.549 161.492 130.634 166.294 130.634C171.096 130.634 175.77 133.174 175.5 138.094Z" fill="#FBBF15"/>
<path fill-rule="evenodd" clip-rule="evenodd" d="M345.858 144.213C345.919 146.477 348.427 147.517 340.658 147.272C332.89 147.027 325.55 148.985 326.161 146.599C326.773 144.213 332.064 142.622 336.208 142.622C340.353 142.622 346.291 141.522 345.858 144.213Z" fill="white"/>
<path fill-rule="evenodd" clip-rule="evenodd" d="M245.175 150.452C245.236 152.715 247.744 153.755 239.976 153.51C232.208 153.265 224.868 155.223 225.479 152.837C226.09 150.452 231.382 148.861 235.526 148.861C239.67 148.861 245.609 147.76 245.175 150.452Z" fill="white"/>
<path d="M256.725 97.1836L252.167 138.525C250.601 144.697 246.954 181.398 246.954 210.962M246.954 210.962C246.954 210.962 306.8 211.064 310.386 209.232C313.972 207.402 313.563 192.515 325.553 181.141C337.542 169.767 346.291 168.947 349.737 162.695C353.182 156.445 347.14 133.443 347.14 133.443M246.954 210.962C246.954 210.962 155.189 214.33 152.446 211.781C149.703 209.232 149.703 181.78 149.703 174.082C149.703 166.384 149.341 152.327 152.403 147.468" stroke="#F58018" stroke-width="2.48252" stroke-miterlimit="22.9256"/>
<path fill-rule="evenodd" clip-rule="evenodd" d="M19.1953 185.32C19.1953 186.117 43.4787 188.765 48.4879 186.914C53.4972 185.064 53.1146 181.49 47.7541 181.49C42.3936 181.49 36.4259 183.689 30.2363 184.107C24.0453 184.524 19.1953 184.524 19.1953 185.32Z" fill="#F9DC44"/>
<path fill-rule="evenodd" clip-rule="evenodd" d="M31.9775 196.502C31.9775 196.502 31.3464 202.128 31.8056 204.022C32.2648 205.917 33.1258 207.697 35.3651 207.64C37.6044 207.582 41.0932 204.654 41.0932 200.176C41.0932 195.698 31.9775 196.502 31.9775 196.502Z" fill="white"/>
<path d="M27.8994 194.782C33.7005 195.357 40.0627 194.069 42.1822 196.9C44.0911 199.449 43.7212 202.749 40.0701 207.641" stroke="#F58018" stroke-width="1.86188" stroke-miterlimit="22.9256"/>
<path fill-rule="evenodd" clip-rule="evenodd" d="M355.007 187.977C343.268 187.977 333.751 197.493 333.751 209.233C333.751 214.231 335.477 218.826 338.364 222.456C351.039 214.921 362.638 206.659 372.979 197.879C369.212 191.928 362.572 187.977 355.007 187.977Z" fill="#252627"/>
<path fill-rule="evenodd" clip-rule="evenodd" d="M370.833 199.672C368.686 196.128 365.385 193.363 361.45 191.899C363.177 194.974 364.165 198.52 364.165 202.297C364.165 203.262 364.099 204.211 363.974 205.142C366.315 203.344 368.602 201.52 370.833 199.672Z" fill="#56595B"/>
<path fill-rule="evenodd" clip-rule="evenodd" d="M95.7958 187.976C84.056 187.976 74.5391 197.493 74.5391 209.232C74.5391 220.973 84.056 230.49 95.7958 230.49C107.536 230.49 117.052 220.973 117.052 209.232C117.052 197.493 107.536 187.976 95.7958 187.976Z" fill="#252627"/>
<path fill-rule="evenodd" clip-rule="evenodd" d="M84.75 224.06C87.8317 226.36 91.654 227.722 95.7955 227.722C106.006 227.722 114.284 219.444 114.284 209.233C114.284 204.458 112.473 200.107 109.501 196.826C110.149 198.862 110.5 201.031 110.5 203.281C110.5 215.021 100.983 224.538 89.2435 224.538C87.7015 224.538 86.199 224.372 84.75 224.06Z" fill="#56595B"/>
<path fill-rule="evenodd" clip-rule="evenodd" d="M52.3656 158.339C50.3622 158.339 47.0728 160.474 45.0188 163.107C42.9648 165.741 42.9231 167.875 44.9265 167.875C46.9299 167.875 50.2193 165.741 52.2733 163.107C54.328 160.474 54.369 158.339 52.3656 158.339Z" fill="#E3ED51"/>
<path fill-rule="evenodd" clip-rule="evenodd" d="M161.86 140.85C163.817 141.95 165.301 142.346 163.519 147.073C161.737 151.798 160.634 152.532 155.467 152.532C150.299 152.532 150.727 148.862 153.908 145.559C157.088 142.256 159.596 139.809 161.86 140.85Z" fill="#F7961F"/>
<path fill-rule="evenodd" clip-rule="evenodd" d="M250.242 53.6968C253.25 53.6968 255.689 54.1835 255.689 54.7833C255.689 55.3839 253.25 55.8706 250.242 55.8706C247.233 55.8706 244.794 55.3839 244.794 54.7833C244.794 54.1835 247.233 53.6968 250.242 53.6968Z" fill="#C3C5C3"/>
<path fill-rule="evenodd" clip-rule="evenodd" d="M250.242 0.43546C259.05 0.43546 266.189 7.57534 266.189 16.3823C266.189 25.1907 250.242 54.7832 250.242 54.7832C250.242 54.7832 234.294 25.1907 234.294 16.3823C234.294 7.57534 241.435 0.43546 250.242 0.43546Z" fill="#FFAF19"/>
<path fill-rule="evenodd" clip-rule="evenodd" d="M250.242 10.9354C253.25 10.9354 255.689 13.3742 255.689 16.3822C255.689 19.391 253.25 21.8306 250.242 21.8306C247.233 21.8306 244.794 19.391 244.794 16.3822C244.794 13.3742 247.233 10.9354 250.242 10.9354Z" fill="#4C4A47"/>
<path fill-rule="evenodd" clip-rule="evenodd" d="M82.564 45.2896C82.564 45.2896 82.3527 52.2576 79.9243 54.3689C77.4967 56.4802 76.5464 45.1839 76.5464 45.1839L82.564 45.2896Z" fill="#040606"/>
<path fill-rule="evenodd" clip-rule="evenodd" d="M69.2961 256.224C68.7275 256.223 68.1567 256.222 67.5851 256.222C30.2588 256.222 0 258.311 0 260.887C0 263.462 30.2588 265.55 67.5851 265.55C80.8431 265.55 93.2073 265.287 103.643 264.831C122.587 264.005 135.17 262.547 135.17 260.887C135.17 258.349 105.831 256.286 69.2961 256.224Z" fill="#E1E2DF"/>
<path fill-rule="evenodd" clip-rule="evenodd" d="M79.5141 86.1423C79.5424 83.3032 79.6354 80.1158 78.0644 77.5661C76.4934 75.0172 69.1563 76.6188 63.6216 76.4193C58.0877 76.2199 44.995 72.734 43.0414 77.3667C41.0886 82.0001 43.0414 85.3944 43.0414 85.3944C43.0414 85.3944 38.1892 89.434 35.2288 94.3204C32.2676 99.2068 29.8511 108.526 28.2198 111.719C26.5886 114.913 25.0175 122.841 25.9843 128.226C26.951 133.611 26.7091 139.744 28.7639 141.739C30.8179 143.733 37.0409 145.857 46.1031 146.366C55.166 146.875 75.1122 151.322 75.1122 138.935C75.1122 126.547 83.9697 118.549 79.5141 86.1423Z" fill="#252627"/>
<path fill-rule="evenodd" clip-rule="evenodd" d="M79.5148 86.1423C79.5371 83.8598 79.6019 81.3519 78.81 79.1319C76.0364 79.1714 72.7068 79.5464 69.855 79.4437C64.3211 79.2443 51.2284 75.7584 49.2756 80.3911C47.3228 85.0238 49.2756 88.4188 49.2756 88.4188C49.2756 88.4188 44.4219 92.4576 41.4622 97.3441C38.5017 102.231 36.0845 111.549 34.4532 114.744C32.8219 117.938 31.2509 125.865 32.2177 131.251C33.1635 136.518 32.9537 142.502 34.8663 144.626C37.8037 145.462 41.6036 146.113 46.1038 146.366C55.1667 146.875 75.1128 151.322 75.1128 138.935C75.1128 126.547 83.9703 118.549 79.5148 86.1423Z" fill="#56595B"/>
<path fill-rule="evenodd" clip-rule="evenodd" d="M112.397 254.183C112.397 254.183 113.233 261.104 106.641 260.889C100.051 260.673 94.7342 259.803 94.7342 259.803V260.889H84.2759V255.959L112.397 254.183Z" fill="#E3A124"/>
<path fill-rule="evenodd" clip-rule="evenodd" d="M86.2134 156.956L95.6603 242.717H84.8842L68.8042 181.521L55.4502 246.108H44.593L44.5156 156.956H86.2134Z" fill="#252627"/>
<path fill-rule="evenodd" clip-rule="evenodd" d="M80.873 120.276C83.1793 126.875 87.7927 133.157 95.327 132.522C102.862 131.887 95.327 112.217 95.327 112.217L80.873 120.276Z" fill="#FAB682"/>
<path fill-rule="evenodd" clip-rule="evenodd" d="M97.5375 119.344C96.5663 115.455 95.3264 112.217 95.3264 112.217L88.4775 116.036C88.3733 120.532 89.6251 125.128 95.1091 125.355L97.5375 119.344Z" fill="#F8A074"/>
<path fill-rule="evenodd" clip-rule="evenodd" d="M59.8231 69.0186L58.0884 89.7275H72.4671C72.4671 89.7275 69.1837 78.3353 69.1837 72.4895L59.8231 69.0186Z" fill="#FAB682"/>
<path fill-rule="evenodd" clip-rule="evenodd" d="M59.8226 69.0187L59.4609 73.3381C62.7116 76.6758 67.0317 79.7747 70.333 81.0532C69.7049 78.0318 69.1832 74.8205 69.1832 72.4897L59.8226 69.0187Z" fill="#F57D5C"/>
<path fill-rule="evenodd" clip-rule="evenodd" d="M79.9761 41.4248C79.9761 41.4248 85.2146 75.7661 68.1604 75.7661C51.1055 75.7661 53.1119 52.3177 53.1119 46.414V41.4248H79.9761Z" fill="#FAB682"/>
<path fill-rule="evenodd" clip-rule="evenodd" d="M51.0663 55.3058C56.3427 55.7263 60.2051 52.2337 60.2051 49.3477C60.2051 46.4617 58.5872 43.627 58.5872 43.627C58.5872 43.627 64.0921 49.6699 73.1677 49.5121C82.2433 49.3544 86.259 44.6562 85.7306 38.7435C85.389 34.9079 81.8741 31.7666 78.6383 31.7666C75.4018 31.7666 69.7734 34.1808 65.8336 34.1808C61.8937 34.1808 57.5156 32.5011 54.7449 34.8632C51.9735 37.2246 52.1848 39.586 52.1848 39.586C52.1848 39.586 45.4438 41.2656 45.4438 47.0912C45.4438 52.9161 49.8681 55.6883 50.9033 55.6325L51.0663 55.3058Z" fill="#040606"/>
<path fill-rule="evenodd" clip-rule="evenodd" d="M65.7164 57.4125C66.2887 57.4125 66.753 57.8977 66.753 58.496C66.753 59.0944 66.2887 59.5796 65.7164 59.5796C65.1441 59.5796 64.6797 59.0944 64.6797 58.496C64.6797 57.8977 65.1441 57.4125 65.7164 57.4125Z" fill="#040606"/>
<path fill-rule="evenodd" clip-rule="evenodd" d="M76.1426 57.5519C76.7149 57.5519 77.1786 58.0371 77.1786 58.6354C77.1786 59.2345 76.7149 59.7197 76.1426 59.7197C75.5703 59.7197 75.106 59.2345 75.106 58.6354C75.106 58.0371 75.5703 57.5519 76.1426 57.5519Z" fill="#040606"/>
<path fill-rule="evenodd" clip-rule="evenodd" d="M72.2175 57.6998C73.9024 60.7332 75.0328 63.1362 69.8227 64.0628C69.5748 64.0918 69.3561 63.9645 69.3352 63.78C69.3136 63.5947 69.4975 63.4213 69.7453 63.393C74.1048 62.6212 72.8672 60.667 71.3967 58.0206C71.294 57.8561 71.3944 57.65 71.6214 57.5621C71.8476 57.4728 72.1148 57.5346 72.2175 57.6998Z" fill="#F57D5C"/>
<path fill-rule="evenodd" clip-rule="evenodd" d="M41.248 93.8437C42.6932 91.6959 58.6326 83.2202 58.6326 83.2202C58.6326 83.2202 61.1956 88.5316 66.1103 88.5316C71.025 88.5316 70.682 82.671 70.682 82.671C70.682 82.671 87.5754 87.163 89.1658 88.8925C90.7554 90.622 97.7658 117.524 97.7658 117.524C97.7658 117.524 93.1406 121.102 84.1789 120.565C84.1789 120.565 86.3467 142.694 87.0701 147.466C87.792 152.237 89.3392 155.679 88.906 156.217C85.9702 159.862 76.5359 161.227 72.3743 161.789C62.3566 163.141 51.0387 161.481 41.9989 156.818C40.8424 156.222 43.7775 130.825 44.6445 126.291C44.6445 126.291 33.7315 123.667 33.6593 122.951C33.5871 122.235 39.8749 95.7518 41.248 93.8437Z" fill="#FFAF19"/>
<path fill-rule="evenodd" clip-rule="evenodd" d="M90.5544 120.238C89.4463 120.431 88.2124 120.566 86.8549 120.606L86.2402 97.4304C90.8275 105.178 90.6913 116.97 90.5544 120.238Z" fill="#E3A124"/>
<path fill-rule="evenodd" clip-rule="evenodd" d="M56.9443 84.1288L57.3395 83.9152C57.9825 85.3352 59.3005 86.9203 60.9318 88.1051C62.575 89.298 64.53 90.0765 66.4128 89.848C70.1026 89.4015 71.3506 87.4725 71.6327 85.5383C71.7681 84.6096 71.6855 83.6786 71.5419 82.9031L72.0338 83.0371C72.1611 83.8006 72.2236 84.6922 72.0934 85.5837C71.789 87.6682 70.4472 89.7468 66.4806 90.2268C64.4452 90.4731 62.3621 89.653 60.6252 88.3923C58.9723 87.1927 57.629 85.5875 56.9443 84.1288Z" fill="#F1492E"/>
<path fill-rule="evenodd" clip-rule="evenodd" d="M92.5586 122.392C91.4818 127.636 93.2701 132.258 95.973 132.412C98.6753 132.567 101.246 131.316 105.244 123.955C109.242 116.595 113.01 97.6232 113.625 96.5441C114.24 95.4657 120.16 96.4808 121.852 94.3866C123.543 92.2932 124.696 82.6706 121.852 82.6706C119.007 82.6706 109.884 86.4557 107.91 94.0064C105.936 101.557 97.7651 107.547 92.5586 122.392Z" fill="#FAB682"/>
<path fill-rule="evenodd" clip-rule="evenodd" d="M94.1247 236.465C98.0191 237.908 95.8728 245.647 96.8269 247.089C97.7802 248.532 100.164 249.516 103.741 248.794C107.316 248.073 113.356 248.73 113.356 253.058C113.356 257.386 111.821 258.96 103.741 258.96C95.66 258.96 84.4828 258.973 83.9886 257.452C83.4945 255.929 83.4774 242.692 84.4873 241.249C84.8028 240.871 87.4938 241.645 88.5335 240.727C90.0904 239.352 90.4974 236.258 94.1247 236.465Z" fill="#FFAF19"/>
<path fill-rule="evenodd" clip-rule="evenodd" d="M105.452 248.578C103.663 248.808 102.517 250.238 101.822 251.481C101.731 251.678 101.464 251.778 101.223 251.703C100.984 251.628 100.862 251.407 100.954 251.209C101.855 249.599 103.169 248.081 105.452 247.812C105.709 247.812 105.916 247.984 105.916 248.195C105.916 248.407 105.709 248.578 105.452 248.578Z" fill="#040606"/>
<path fill-rule="evenodd" clip-rule="evenodd" d="M101.388 248.981C99.9907 249.177 98.6147 250.138 97.9121 251.12C97.8065 251.312 97.5318 251.398 97.2974 251.311C97.0637 251.224 96.9595 250.997 97.0652 250.805C97.9821 249.517 99.5613 248.446 101.388 248.215C101.644 248.215 101.852 248.387 101.852 248.599C101.852 248.81 101.644 248.981 101.388 248.981Z" fill="#040606"/>
<path fill-rule="evenodd" clip-rule="evenodd" d="M97.8696 248.171C97.2244 248.127 96.0657 249.088 95.7114 249.415C95.5782 249.596 95.2932 249.654 95.0736 249.544C94.8541 249.435 94.7841 249.199 94.9166 249.018C95.6549 248.316 96.8501 247.291 98.1174 247.431C98.3645 247.488 98.5089 247.699 98.4412 247.903C98.3719 248.107 98.1167 248.227 97.8696 248.171Z" fill="#040606"/>
<path fill-rule="evenodd" clip-rule="evenodd" d="M96.6498 244.051L96.7331 244.089C98.1665 243.841 99.3297 243.368 99.4264 242.597C98.7685 242.666 97.7363 243.257 96.6498 244.051ZM94.7908 244.292C94.8354 244.258 94.8793 244.223 94.924 244.189C93.0389 243.412 91.3109 242.987 91.0429 243.85C91.3577 244.187 93.024 244.371 94.7908 244.292ZM91.3012 248.14C91.9501 247.025 92.8305 246.009 93.7891 245.134C90.7988 244.894 88.4866 243.729 91.1427 242.778C92.1466 242.418 93.9156 242.897 95.6979 243.635C98.6442 241.645 101.426 241.142 100.13 243.259C99.7055 243.952 98.9509 244.427 98.0385 244.732C99.2761 245.375 100.328 246.018 100.871 246.411C101.033 246.575 101.004 246.816 100.805 246.95C100.607 247.084 100.314 247.06 100.152 246.897C99.8372 246.67 98.4158 245.835 96.7837 245.035C96.2792 245.116 95.7545 245.162 95.2298 245.175C93.8642 246.334 92.6363 247.598 92.2069 248.31C92.1496 248.516 91.901 248.645 91.651 248.599C91.4009 248.551 91.2439 248.346 91.3012 248.14Z" fill="#040606"/>
<path fill-rule="evenodd" clip-rule="evenodd" d="M79.5417 83.3032C82.6026 84.0206 84.257 86.2398 85.6643 91.293C87.0708 96.3454 89.3459 110.959 88.6426 118.709C87.9393 126.459 85.5385 134.021 85.5385 134.021C85.5385 134.021 84.0509 119.118 83.6788 115.841C83.3059 112.563 79.5001 92.829 77.7623 88.6645C76.0254 84.4984 74.8666 83.9373 75.1561 83.3032C75.4456 82.6706 79.5417 83.3032 79.5417 83.3032Z" fill="#040606"/>
<path fill-rule="evenodd" clip-rule="evenodd" d="M41.7169 256.325L39.7344 256.391C39.852 259.765 38.9872 264.516 49.4961 264.656C60.0043 264.796 59.2563 261.226 59.2988 257.472L41.7169 256.325Z" fill="#E3A124"/>
<path fill-rule="evenodd" clip-rule="evenodd" d="M50.0058 85.7051C52.8866 84.2003 54.2582 84.3804 54.5997 84.8024C54.9413 85.2244 57.4925 88.4735 58.0878 93.5289C58.6839 98.5836 59.6678 109.416 59.1937 116.187C58.7204 122.957 51.3334 138.032 43.0415 138.935V125.93C43.712 126.101 44.2732 126.23 44.6445 126.291C46.6948 126.63 51.742 126.766 53.8109 125.844C53.8109 125.844 54.8944 117.89 54.8944 113.861C54.8944 110.59 52.74 95.5234 50.7716 92.6255C48.8024 89.7275 47.8543 89.1351 47.7821 88.6536C47.7091 88.1721 48.1103 86.8184 50.0058 85.7051Z" fill="#040606"/>
<path fill-rule="evenodd" clip-rule="evenodd" d="M48.7906 57.6553C48.7906 59.9489 50.6607 61.5415 53.0385 61.5415C55.4162 61.5415 56.2155 58.3347 56.2155 57.6039C56.2155 56.8724 55.1773 53.9625 52.5034 53.9625C49.8302 53.9625 48.6462 56.1386 48.7906 57.6553Z" fill="#FAB682"/>
<path fill-rule="evenodd" clip-rule="evenodd" d="M52.0124 55.5185C53.3981 55.3555 54.9364 56.1853 54.7786 57.8054C54.7518 58.0786 52.965 58.0912 53.3483 58.5787C53.8089 59.1651 54.6164 58.9173 54.8515 58.7223C54.7407 59.3266 53.0967 59.7821 52.7254 58.7186C52.5453 58.2014 52.9337 57.542 54.0143 57.5182C53.7881 56.2917 52.9628 55.9144 52.1903 56.0298C50.6088 56.2657 50.4414 57.0054 50.3335 57.4661C50.0752 56.864 50.4749 55.7008 52.0124 55.5185Z" fill="#F57D5C"/>
<path fill-rule="evenodd" clip-rule="evenodd" d="M36.553 124.09C35.6532 127.01 34.6731 131.619 35.8021 135.532C37.6142 141.814 49.8192 173.526 49.8192 173.526L54.8939 169.936C54.8939 169.936 48.3747 136.832 48.0122 133.967C48.0122 133.967 49.8162 130.964 50.9965 126.443C48.7311 126.653 46.0431 126.206 44.644 125.976C43.2456 125.745 38.9977 124.821 36.553 124.09Z" fill="#FAB682"/>
<path fill-rule="evenodd" clip-rule="evenodd" d="M111.232 70.0871L121.565 70.8708C122.328 70.9288 122.895 71.4914 122.825 72.121L120.724 90.9784C120.654 91.6088 119.972 92.0761 119.21 92.0181L108.876 91.2344C108.113 91.1764 107.546 90.6138 107.616 89.9842L109.717 71.1268C109.787 70.4964 110.468 70.0291 111.232 70.0871Z" fill="#F03C4F"/>
<path fill-rule="evenodd" clip-rule="evenodd" d="M120.313 71.8485C120.904 71.8931 121.343 72.3285 121.289 72.8167L120.976 75.6149C120.923 76.1023 120.395 76.4648 119.804 76.4201C119.213 76.3747 118.774 75.9394 118.829 75.4526L119.14 72.6529C119.195 72.1662 119.722 71.8038 120.313 71.8485Z" fill="#040606"/>
<path fill-rule="evenodd" clip-rule="evenodd" d="M120.256 72.3638C120.637 72.3928 120.917 72.6704 120.882 72.9845C120.847 73.2985 120.51 73.53 120.13 73.501C119.749 73.4719 119.469 73.1936 119.504 72.8803C119.539 72.5662 119.876 72.3348 120.256 72.3638Z" fill="#252627"/>
<path fill-rule="evenodd" clip-rule="evenodd" d="M119.942 75.1976C120.166 75.2148 120.332 75.3792 120.311 75.5653C120.29 75.7506 120.091 75.8868 119.867 75.8696C119.642 75.8525 119.477 75.6888 119.497 75.5028C119.517 75.3174 119.716 75.1805 119.942 75.1976Z" fill="white"/>
<path fill-rule="evenodd" clip-rule="evenodd" d="M120.099 73.7808C120.479 73.8098 120.759 74.0874 120.724 74.4022C120.69 74.7155 120.352 74.947 119.972 74.918C119.591 74.8889 119.311 74.6113 119.346 74.2973C119.381 73.9832 119.718 73.7518 120.099 73.7808Z" fill="#252627"/>
<path fill-rule="evenodd" clip-rule="evenodd" d="M50.8403 242.213C58.3322 242.513 55.9761 248.768 55.7342 251.474C55.4931 254.18 59.1784 255.078 59.2989 257.472C59.4195 259.864 57.2449 262.727 49.7225 262.727C42.2008 262.727 39.7241 259.997 39.7241 255.927C39.7241 251.857 43.7905 251.479 43.7905 248.981C43.7905 246.484 41.6457 242.376 50.8403 242.213Z" fill="#FFAF19"/>
<path fill-rule="evenodd" clip-rule="evenodd" d="M45.8572 254.922C47.5212 253.852 50.2316 254.058 51.8942 255.019C52.075 255.169 52.075 255.412 51.8942 255.561C51.7126 255.711 51.4186 255.711 51.2371 255.561C50.0471 254.9 47.6842 254.717 46.4905 255.483C46.3022 255.627 46.0083 255.619 45.8341 255.464C45.6593 255.309 45.6697 255.066 45.8572 254.922Z" fill="#040606"/>
<path fill-rule="evenodd" clip-rule="evenodd" d="M46.4414 252.415C47.8375 251.721 50.1512 251.59 51.4402 252.55C51.6113 252.708 51.595 252.95 51.4037 253.092C51.2132 253.233 50.9192 253.219 50.7481 253.062C49.9458 252.472 47.9141 252.58 47.0501 252.993C46.8566 253.133 46.5634 253.115 46.3952 252.955C46.227 252.795 46.2471 252.553 46.4414 252.415Z" fill="#040606"/>
<path fill-rule="evenodd" clip-rule="evenodd" d="M46.5071 250.395C47.4968 249.267 50.4603 249.161 51.68 250.359C51.8222 250.534 51.7649 250.773 51.552 250.891C51.3392 251.008 51.0504 250.961 50.9075 250.784C50.1403 250.034 47.8198 250.226 47.3309 250.748C47.2126 250.936 46.9327 251.009 46.705 250.912C46.4773 250.814 46.3887 250.583 46.5071 250.395Z" fill="#040606"/>
<path fill-rule="evenodd" clip-rule="evenodd" d="M50.7725 247.146C52.4165 247.219 53.9317 246.987 54.376 246.286C54.0708 245.66 52.5192 246.205 50.7725 247.146ZM48.5235 246.868C47.5017 245.911 46.6571 245.164 45.7551 245.182C45.7305 245.197 45.703 245.215 45.6971 245.236C45.5021 245.911 46.8372 246.525 48.5235 246.868ZM44.5391 250.655C45.6576 249.318 46.8632 248.286 48.051 247.507C45.6033 246.835 43.8574 245.545 45.121 244.619C46.2403 243.799 47.9914 245.195 49.5736 246.634C53.5268 244.683 56.7314 245.46 54.9453 246.914C53.9763 247.705 52.5207 247.988 51.0092 247.952C51.5279 248.415 51.9878 248.789 52.348 248.96C53.605 249.559 53.9674 249.614 55.3233 250.022C55.5682 250.083 55.7059 250.298 55.6307 250.5C55.5548 250.702 55.2951 250.816 55.0495 250.754L53.4442 250.271C51.8405 249.699 50.6051 248.755 49.5706 247.834C47.7637 248.929 46.0022 250.247 45.383 250.975C45.2758 251.167 45.0005 251.252 44.7668 251.164C44.5346 251.075 44.4319 250.848 44.5391 250.655Z" fill="#040606"/>
<path fill-rule="evenodd" clip-rule="evenodd" d="M48.9717 126.545C50.0009 124.672 53.7413 118.266 54.2734 107.626C54.6589 110.414 54.8941 112.781 54.8941 113.861C54.8941 117.89 53.8105 125.845 53.8105 125.845C52.7277 126.327 50.8292 126.52 48.9717 126.545Z" fill="#E3A124"/>
<path fill-rule="evenodd" clip-rule="evenodd" d="M57.0226 168.311C54.3175 171.497 52.0595 173.851 47.2207 174.358C46.9647 174.358 46.7563 174.187 46.7563 173.974C46.7563 173.763 46.9647 173.592 47.2207 173.592C51.5981 173.129 53.7891 170.789 56.2092 167.94C56.3335 167.755 56.6163 167.688 56.8411 167.79C57.0651 167.893 57.1469 168.126 57.0226 168.311Z" fill="#040606"/>
<path fill-rule="evenodd" clip-rule="evenodd" d="M122.514 82.9099C122.514 82.9099 117.76 78.8517 116.809 79.8013C115.859 80.7517 120.946 84.2234 120.946 84.2234C120.946 84.2234 115.403 81.2146 115.245 82.4812C115.086 83.7486 120.629 87.0737 120.629 87.0737C120.629 87.0737 115.562 85.49 115.245 86.9152C114.928 88.3403 119.996 89.1322 119.996 89.1322C119.996 89.1322 114.77 89.1322 114.453 89.924C114.136 90.7158 121.263 92.458 121.263 92.458L122.514 82.9099Z" fill="#FAB682"/>
<path d="M63.4134 55.0147C63.4975 54.9187 63.5853 54.8272 63.679 54.7409C63.7289 54.6955 63.7803 54.6516 63.8316 54.6084C63.8971 54.5533 63.8405 54.6158 63.8085 54.6248C63.8316 54.6181 63.8614 54.5853 63.8807 54.5712C63.9842 54.4968 64.0921 54.429 64.203 54.3665C64.2618 54.333 64.3213 54.3018 64.3816 54.272C64.4091 54.2586 64.4359 54.246 64.4627 54.2333C64.4813 54.2251 64.6004 54.1693 64.5103 54.2118C64.4285 54.2497 64.5215 54.2088 64.5386 54.2021C64.5669 54.1909 64.5952 54.1812 64.6234 54.1708C64.6867 54.1485 64.7514 54.1276 64.8154 54.109C64.9382 54.0741 65.0618 54.045 65.1875 54.0227C65.2173 54.0175 65.2471 54.0138 65.2761 54.0086C65.3639 53.9929 65.1518 54.0197 65.2404 54.0138C65.3081 54.0093 65.3743 54.0004 65.4421 53.9974C65.5768 53.9907 65.7115 53.9922 65.8462 54.0011C66.1788 54.022 66.4973 53.693 66.4825 53.3641C66.4661 53.0017 66.2026 52.7509 65.8462 52.7278C64.6086 52.6497 63.3293 53.181 62.5136 54.115C62.2941 54.3651 62.2487 54.7721 62.5136 55.0147C62.7533 55.235 63.1797 55.2826 63.4134 55.0147Z" fill="#040606"/>
<path d="M74.7927 56.0892C74.9177 56.0505 75.0442 56.0178 75.1722 55.9939C75.2124 55.9858 75.4111 55.9277 75.2452 55.9798C75.3032 55.9612 75.3806 55.9664 75.4402 55.9627C75.5711 55.9545 75.7021 55.9537 75.8323 55.9612C75.8978 55.9642 75.9626 55.9709 76.0281 55.9761C76.162 55.9865 75.9068 55.9545 76.0772 55.9835C76.1978 56.0043 76.3183 56.0304 76.4359 56.0631C76.5527 56.0951 76.7046 56.1242 76.8073 56.1882C76.6681 56.1018 76.8474 56.2068 76.8794 56.2224C76.939 56.2507 76.9963 56.2812 77.0536 56.3125C77.1682 56.3765 77.2776 56.4471 77.384 56.5231C77.6564 56.7165 78.1044 56.5796 78.2555 56.2946C78.4281 55.9671 78.318 55.63 78.027 55.4239C77.0112 54.702 75.6426 54.4973 74.4541 54.8613C74.1356 54.9588 73.9011 55.3108 74.009 55.6442C74.1132 55.9649 74.4511 56.1934 74.7927 56.0892Z" fill="#040606"/>
<path d="M66.1706 66.0877C68.0438 67.6483 70.7943 67.9184 72.9094 66.6734C73.6149 66.2581 72.9749 65.1574 72.2671 65.5742C70.6745 66.5111 68.5022 66.3802 67.0703 65.1872C66.8069 64.9677 66.4288 64.929 66.1706 65.1872C65.9444 65.4134 65.9049 65.8667 66.1706 66.0877Z" fill="#040606"/>
<path opacity="0.15" d="M245.5 162L120.5 76L209 194L245.5 162Z" fill="url(#paint0_linear_45_1156)"/>
<circle cx="225" cy="176" r="25" fill="white"/>
<path d="M221.25 167.75V172.25H216.75V167.75H221.25ZM223.5 165.5H214.5V174.5H223.5V165.5ZM221.25 179.75V184.25H216.75V179.75H221.25ZM223.5 177.5H214.5V186.5H223.5V177.5ZM233.25 167.75V172.25H228.75V167.75H233.25ZM235.5 165.5H226.5V174.5H235.5V165.5ZM226.5 177.5H228.75V179.75H226.5V177.5ZM228.75 179.75H231V182H228.75V179.75ZM231 177.5H233.25V179.75H231V177.5ZM226.5 182H228.75V184.25H226.5V182ZM228.75 184.25H231V186.5H228.75V184.25ZM231 182H233.25V184.25H231V182ZM233.25 179.75H235.5V182H233.25V179.75ZM233.25 184.25H235.5V186.5H233.25V184.25ZM240 168.5H237V164H232.5V161H240V168.5ZM240 191V183.5H237V188H232.5V191H240ZM210 191H217.5V188H213V183.5H210V191ZM210 161V168.5H213V164H217.5V161H210Z" fill="#333333"/>
<defs>
<linearGradient id="paint0_linear_45_1156" x1="142" y1="63" x2="420" y2="151.5" gradientUnits="userSpaceOnUse">
<stop/>
<stop offset="1" stop-opacity="0"/>
</linearGradient>
</defs>
</svg>
